<?xml version="1.0" standalone="no"?>
<!DOCTYPE svg PUBLIC "-//W3C//DTD SVG 20010904//EN"
 "http://www.w3.org/TR/2001/REC-SVG-20010904/DTD/svg10.dtd">
<svg version="1.0" xmlns="http://www.w3.org/2000/svg"
 width="396.000000pt" height="510.000000pt" viewBox="0 0 396.000000 510.000000"
 preserveAspectRatio="xMidYMid meet">

<g transform="translate(0.000000,510.000000) scale(0.100000,-0.100000)"
fill="#ffffff" stroke="none">
<path d="M1925 5078 c-124 -13 -277 -47 -385 -87 -30 -11 -91 -33 -135 -49
-179 -65 -405 -206 -580 -360 -95 -84 -340 -410 -399 -532 -13 -25 -50 -100
-84 -167 -34 -67 -62 -124 -62 -128 0 -4 -7 -23 -16 -43 -54 -123 -130 -372
-149 -487 -8 -44 -18 -98 -23 -120 -32 -129 -58 -283 -67 -395 -4 -41 -9 -91
-11 -110 -14 -99 12 -502 36 -555 5 -11 11 -49 13 -85 2 -36 14 -96 25 -135
11 -38 23 -86 26 -106 8 -50 11 -60 63 -184 17 -38 33 -83 37 -100 8 -34 49
-122 146 -315 71 -142 145 -260 233 -371 29 -36 66 -83 82 -105 68 -88 234
-254 355 -355 22 -18 114 -79 175 -116 83 -50 241 -113 385 -152 65 -18 103
-21 302 -21 249 0 333 10 511 60 86 24 271 101 342 142 11 7 45 25 75 41 98
52 257 174 360 277 48 48 148 168 188 226 51 74 122 187 122 194 0 5 4 10 8
12 20 7 102 165 215 411 43 92 98 257 127 382 11 50 25 108 30 130 36 149 71
458 77 681 8 289 -11 491 -64 694 -14 52 -28 109 -33 125 -11 44 -69 217 -80
240 -5 11 -20 50 -34 86 -33 89 -138 304 -200 409 -138 233 -347 484 -531 638
-95 79 -307 201 -395 227 -14 4 -43 15 -65 25 -63 30 -222 68 -334 80 -105 11
-151 11 -286 -2z m390 -68 c135 -31 158 -38 255 -76 116 -44 150 -61 150 -75
0 -6 -21 1 -47 15 -99 51 -118 58 -333 112 -52 13 -139 27 -192 30 -59 4 -95
11 -91 17 8 13 161 0 258 -23z m-276 16 c-2 -2 -58 -11 -124 -21 -182 -25
-339 -65 -440 -110 -88 -41 -266 -128 -308 -152 -215 -125 -400 -301 -549
-524 -21 -31 -38 -62 -38 -68 0 -6 -4 -11 -9 -11 -14 0 -110 -172 -206 -369
-73 -151 -186 -510 -206 -659 -5 -35 -10 -66 -13 -70 -2 -4 -7 -34 -11 -67 -3
-32 -8 -62 -11 -66 -2 -4 -6 -42 -9 -85 -3 -44 -10 -112 -16 -152 -14 -85 -7
-443 11 -587 18 -140 72 -332 173 -616 86 -242 291 -599 445 -779 182 -211
349 -363 471 -430 25 -13 48 -27 51 -30 6 -7 76 -40 150 -70 30 -12 64 -26 75
-31 11 -5 79 -20 150 -35 111 -23 155 -27 300 -27 236 0 408 36 630 132 22 10
60 26 85 36 69 29 168 84 240 134 36 24 84 57 107 73 23 16 81 72 130 125 48
53 95 104 104 114 9 9 36 43 59 75 24 33 50 66 57 74 23 25 106 158 162 260
113 210 173 345 253 573 28 82 34 64 7 -24 -71 -240 -233 -575 -374 -774 -197
-279 -295 -381 -500 -517 -86 -57 -310 -170 -385 -194 -30 -9 -59 -20 -65 -24
-5 -4 -26 -11 -45 -14 -19 -4 -44 -11 -55 -16 -11 -4 -72 -18 -135 -31 -121
-24 -325 -31 -462 -17 -74 8 -286 61 -335 83 -17 8 -35 15 -40 15 -4 0 -19 9
-33 20 -14 11 -30 20 -37 20 -22 0 -216 129 -283 187 -193 168 -430 450 -520
618 -18 33 -46 85 -63 115 -148 263 -293 694 -337 1001 -28 194 -20 615 15
794 7 39 16 97 20 130 3 33 10 74 15 90 4 17 15 64 25 105 9 41 25 102 35 135
10 33 25 85 34 115 20 66 51 150 77 206 11 22 19 43 19 46 0 8 136 287 153
312 6 11 41 65 76 120 76 120 102 153 226 293 71 80 196 189 259 227 19 12 69
43 112 69 170 106 437 216 592 243 155 27 304 42 291 30z m231 -42 c128 -27
282 -74 360 -111 220 -103 442 -282 599 -483 36 -47 74 -94 83 -104 101 -111
299 -491 389 -746 10 -30 23 -64 28 -75 33 -73 58 -165 97 -365 23 -114 29
-223 29 -480 -1 -435 -50 -768 -155 -1040 -27 -69 -52 -139 -56 -155 -19 -77
-294 -576 -333 -605 -4 -3 -20 -23 -36 -45 -33 -45 -128 -157 -190 -223 -55
-59 -242 -192 -365 -259 -59 -32 -302 -131 -385 -156 -147 -46 -255 -59 -430
-54 -329 9 -569 88 -800 263 -84 64 -262 236 -331 319 -27 33 -51 62 -54 65
-70 70 -310 461 -310 506 0 7 -3 14 -7 16 -15 6 -49 83 -97 218 -15 41 -31 84
-36 95 -30 73 -114 367 -129 455 -29 176 -35 408 -16 668 6 81 12 115 22 119
10 4 11 9 3 18 -24 29 40 379 106 584 19 58 34 113 34 121 0 9 4 20 9 25 5 6
14 28 21 50 12 38 127 280 169 355 11 19 22 42 25 50 7 16 25 48 93 158 108
176 307 384 473 494 180 118 441 241 580 272 41 9 89 21 105 26 25 7 157 27
285 43 44 5 143 -3 220 -19z m507 -146 c21 -12 64 -41 95 -65 31 -24 59 -43
62 -43 3 0 18 -12 34 -27 17 -16 55 -50 87 -78 48 -42 127 -127 230 -246 13
-15 31 -39 41 -55 10 -16 35 -49 55 -74 80 -99 227 -368 294 -541 20 -52 45
-112 55 -134 61 -139 130 -416 151 -610 19 -178 5 -743 -18 -765 -3 -3 -3 22
1 55 3 33 9 171 12 306 7 255 -2 404 -32 543 -9 39 -24 109 -34 156 -43 204
-208 602 -351 845 -32 55 -66 109 -76 120 -10 11 -52 65 -93 120 -138 185
-268 307 -477 445 -45 30 -82 58 -83 63 0 11 5 9 47 -15z m1078 -2745 c-4 -30
-9 -52 -12 -49 -3 2 -2 33 2 68 5 35 10 57 13 50 2 -7 1 -38 -3 -69z m-34
-205 c-12 -57 -25 -116 -31 -133 -15 -46 -2 58 15 116 7 26 17 73 21 105 5 33
10 49 12 37 2 -13 -6 -69 -17 -125z"/>
<path d="M1623 4844 c-38 -22 -43 -30 -43 -60 0 -24 8 -43 25 -60 23 -23 29
-24 88 -18 55 6 65 4 71 -11 14 -38 -49 -67 -90 -40 -27 17 -34 18 -53 6 -21
-14 4 -49 44 -60 43 -12 101 2 133 32 20 18 23 29 19 65 -7 60 -27 74 -102 68
-76 -6 -97 4 -71 33 21 23 47 27 77 11 13 -8 25 -7 41 1 l22 12 -28 23 c-35
31 -80 31 -133 -2z"/>
<path d="M2581 4763 c-31 -83 -62 -147 -72 -154 -21 -12 -39 2 -39 31 0 27
-22 46 -41 34 -18 -11 -9 -70 14 -92 22 -21 68 -29 100 -16 8 3 34 50 58 105
36 84 40 102 28 110 -24 15 -37 10 -48 -18z"/>
<path d="M1365 4738 c-30 -17 -33 -25 -24 -71 5 -23 12 -77 18 -120 5 -43 12
-81 14 -84 3 -3 15 -2 26 2 16 5 21 15 21 44 0 31 5 40 25 49 36 16 49 15 69
-7 17 -19 50 -18 62 1 3 5 -7 22 -23 38 -15 15 -57 58 -93 94 -35 36 -67 66
-70 66 -3 0 -14 -6 -25 -12z m75 -123 c0 -20 -26 -19 -34 1 -11 28 -7 35 14
24 11 -6 20 -17 20 -25z"/>
<path d="M2675 4628 c-30 -46 -55 -92 -55 -103 0 -27 48 -79 87 -94 26 -10 37
-10 59 1 29 13 136 156 131 172 -6 18 -39 32 -44 19 -2 -6 -12 -20 -22 -32 -9
-11 -30 -40 -46 -65 -20 -32 -36 -46 -51 -46 -44 0 -70 52 -41 82 6 7 30 39
52 71 32 48 37 60 25 67 -29 18 -40 9 -95 -72z"/>
<path d="M1925 4611 c-95 -13 -212 -48 -325 -97 -102 -45 -264 -139 -325 -189
-16 -13 -41 -32 -54 -42 -50 -37 -189 -183 -260 -272 -43 -54 -111 -159 -111
-171 0 -4 -3 -10 -8 -12 -10 -4 -86 -160 -175 -358 -48 -107 -109 -328 -131
-475 -65 -424 -48 -829 48 -1135 13 -41 29 -97 36 -125 7 -27 17 -54 21 -59 5
-6 9 -18 9 -29 0 -10 9 -35 19 -55 21 -40 28 -56 62 -147 25 -69 60 -134 137
-260 97 -158 133 -211 167 -249 6 -6 36 -42 67 -81 113 -142 227 -225 428
-313 177 -78 347 -96 555 -61 100 17 267 70 350 111 66 32 244 137 261 153 6
5 24 19 40 30 49 34 237 229 275 286 102 152 136 209 197 331 127 252 163 365
222 693 45 258 57 604 28 810 -31 214 -102 500 -157 630 -5 11 -17 40 -27 65
-38 96 -95 213 -127 263 -19 29 -49 77 -67 107 -85 139 -256 330 -370 413 -30
22 -57 43 -60 46 -20 23 -251 135 -345 168 -56 20 -94 25 -195 28 -69 2 -152
0 -185 -4z m225 -13 c119 -16 187 -37 309 -94 120 -57 215 -119 295 -194 173
-160 281 -294 376 -465 59 -106 91 -175 81 -175 -16 0 -91 85 -101 114 -20 59
-123 121 -222 133 -33 5 -42 0 -80 -37 -41 -39 -113 -80 -143 -80 -22 0 -74
-49 -92 -88 -12 -25 -18 -60 -17 -104 l0 -68 -35 0 c-19 0 -54 12 -79 26 l-45
26 32 20 c17 11 31 24 31 30 0 5 9 17 20 26 10 10 21 31 22 49 3 24 16 43 47
69 23 20 47 46 52 58 5 12 13 28 18 36 5 8 17 32 27 53 18 35 18 40 3 65 -11
19 -13 35 -8 50 11 28 1 52 -28 76 -13 10 -22 21 -19 23 10 11 -15 43 -33 43
-11 0 -21 6 -24 14 -7 18 -86 33 -179 35 -27 1 -38 5 -38 16 0 9 -12 20 -27
26 -15 6 -41 16 -58 24 -16 7 -41 17 -55 20 -41 12 -48 23 -43 63 4 31 1 42
-21 62 -32 31 -34 58 -4 62 31 4 37 38 7 38 -12 0 -28 8 -35 18 -12 16 -13 16
-19 0 -4 -10 -16 -18 -26 -18 -25 0 -24 -16 1 -30 28 -15 25 -33 -11 -69 -27
-27 -30 -36 -24 -69 5 -34 3 -40 -19 -50 -14 -6 -33 -9 -41 -6 -8 4 -15 1 -15
-6 0 -7 -7 -10 -16 -6 -10 4 -25 -1 -35 -10 -10 -9 -22 -13 -28 -10 -6 4 -16
-2 -23 -14 -7 -11 -22 -20 -34 -20 -32 0 -168 -31 -178 -41 -6 -5 -20 -9 -32
-9 -15 0 -25 -9 -33 -30 -5 -16 -17 -30 -25 -30 -25 0 -49 -45 -37 -68 8 -15
7 -23 -4 -32 -24 -20 -21 -38 21 -137 8 -17 14 -39 14 -50 0 -10 14 -34 32
-53 18 -19 31 -42 30 -51 -4 -22 36 -100 62 -122 20 -17 19 -17 -49 -15 l-70
3 3 52 c8 120 -25 177 -131 227 -30 15 -69 42 -85 60 -43 49 -67 59 -121 51
-86 -12 -155 -51 -197 -111 -22 -30 -54 -61 -74 -70 -45 -21 -70 -43 -70 -62
0 -12 10 -14 56 -8 30 3 65 13 78 21 12 8 25 13 28 10 3 -3 20 12 37 34 32 40
54 45 65 14 8 -21 -120 -149 -158 -158 -30 -6 -30 -6 12 34 23 23 42 47 42 53
0 7 -12 0 -27 -15 -16 -15 -48 -45 -73 -67 l-45 -39 57 -1 c74 0 83 4 119 56
35 51 76 92 101 100 23 7 165 -62 179 -87 5 -11 9 -30 7 -42 -3 -20 -13 -24
-116 -39 -173 -25 -211 -35 -298 -79 -146 -72 -207 -155 -170 -228 10 -18 24
-35 32 -38 19 -7 18 -42 -2 -64 -15 -16 -18 -17 -49 -2 -20 9 -43 13 -59 9
-30 -7 -76 -70 -77 -106 0 -14 -5 -34 -10 -45 -22 -48 6 78 43 195 83 258 235
573 337 699 74 93 88 108 177 196 89 89 215 188 297 234 182 101 371 168 532
189 89 11 103 11 185 0z m-86 -184 c8 -22 7 -36 -3 -53 -13 -20 -41 3 -41 34
0 36 32 50 44 19z m22 -115 c9 -16 -12 -33 -31 -25 -14 5 -15 9 -5 21 15 18
26 19 36 4z m-103 -70 c-15 -15 -83 -24 -83 -11 0 14 84 42 89 30 2 -6 -1 -14
-6 -19z m137 15 c0 -8 -4 -12 -10 -9 -5 3 -10 10 -10 16 0 5 5 9 10 9 6 0 10
-7 10 -16z m175 6 c3 -5 1 -10 -4 -10 -6 0 -11 5 -11 10 0 6 2 10 4 10 3 0 8
-4 11 -10z m-96 -26 c2 -2 2 -7 -2 -10 -8 -9 -47 6 -47 17 0 9 37 3 49 -7z
m-379 -4 c0 -5 -4 -10 -10 -10 -5 0 -10 5 -10 10 0 6 5 10 10 10 6 0 10 -4 10
-10z m461 -31 c17 -33 7 -29 -26 9 -25 30 -26 33 -8 23 13 -6 28 -21 34 -32z
m-174 15 c8 -21 -19 -46 -40 -38 -17 6 -23 35 -10 47 12 13 44 7 50 -9z m233
-4 c0 -5 -7 -10 -16 -10 -8 0 -12 5 -9 10 3 6 10 10 16 10 5 0 9 -4 9 -10z
m-415 -29 c-3 -11 -1 -22 5 -26 6 -3 10 4 11 17 1 17 3 18 6 6 6 -26 23 -22
23 5 1 18 2 19 10 6 5 -9 8 -25 6 -35 -2 -11 0 -44 6 -74 8 -45 7 -60 -9 -92
-19 -39 -27 -45 -38 -28 -9 14 -42 12 -48 -2 -3 -10 -8 -9 -21 2 -21 21 -35
105 -26 160 4 25 8 39 9 33 2 -22 21 -14 22 10 l2 22 4 -22 c6 -32 19 -28 27
7 3 17 8 30 11 30 4 0 4 -9 0 -19z m295 -31 c5 0 11 6 13 13 3 7 6 4 6 -7 1
-11 6 -16 15 -13 23 9 30 -46 16 -118 -7 -35 -18 -72 -25 -81 -12 -17 -13 -17
-30 0 -12 11 -26 15 -41 12 -18 -5 -24 -2 -24 10 0 9 -7 22 -16 29 -15 10 -15
14 -1 41 8 16 18 51 21 77 6 41 10 47 27 42 15 -5 19 -1 20 22 l2 28 4 -27 c2
-16 8 -28 13 -28z m-566 18 c-5 -7 -21 -23 -36 -36 -26 -22 -42 -61 -51 -127
-3 -23 -4 -20 -6 13 -1 51 27 111 66 141 33 24 37 25 27 9z m86 2 c-20 -13
-33 -13 -25 0 3 6 14 10 23 10 15 0 15 -2 2 -10z m310 -20 c0 -4 -7 -10 -15
-14 -10 -4 -15 1 -15 14 0 13 5 18 15 14 8 -4 15 -10 15 -14z m67 -17 c-3 -3
-11 -2 -17 2 -8 5 -7 11 2 22 12 15 13 14 16 -1 2 -10 1 -20 -1 -23z m180 5
c-3 -8 -6 -5 -6 6 -1 11 2 17 5 13 3 -3 4 -12 1 -19z m63 -3 c0 -8 -4 -15 -10
-15 -5 0 -10 7 -10 15 0 8 5 15 10 15 6 0 10 -7 10 -15z m152 -9 c34 -30 63
-115 52 -153 -7 -25 -8 -22 -15 26 -9 65 -24 98 -58 128 -14 13 -21 23 -16 23
6 -1 22 -11 37 -24z m-962 -5 c0 -20 -13 -35 -23 -25 -7 8 4 44 14 44 5 0 9
-9 9 -19z m537 -2 c16 -16 4 -49 -18 -49 -13 0 -19 7 -19 23 0 36 16 47 37 26z
m353 -49 c5 0 11 8 13 18 3 10 5 6 6 -10 1 -32 20 -37 28 -8 9 34 19 22 37
-44 20 -74 17 -92 -23 -130 l-28 -27 -17 26 c-13 20 -20 24 -30 15 -18 -14
-46 -2 -46 19 0 9 5 32 11 51 6 19 10 50 10 68 0 17 4 32 9 32 6 0 11 12 12
28 1 24 2 24 5 -5 2 -18 8 -33 13 -33z m-726 -21 c2 -35 7 -76 11 -91 6 -22 4
-28 -8 -28 -9 0 -18 4 -21 9 -3 5 -15 7 -27 4 -17 -5 -20 -12 -17 -51 2 -33
-1 -47 -14 -55 -23 -15 -30 -5 -20 24 7 17 4 36 -9 67 -20 47 -25 118 -9 142
6 10 10 11 10 3 0 -20 20 -15 20 5 0 14 2 15 10 2 10 -16 12 -15 28 15 11 19
11 19 12 -5 2 -25 2 -25 12 3 5 16 12 27 14 24 2 -2 5 -32 8 -68z m683 49 c-3
-8 -6 -5 -6 6 -1 11 2 17 5 13 3 -3 4 -12 1 -19z m205 -18 c3 -19 1 -29 -6
-27 -14 4 -21 57 -8 57 5 0 12 -14 14 -30z m-814 -28 c2 -7 -4 -15 -13 -18
-20 -8 -27 -1 -19 20 7 18 25 17 32 -2z m572 -12 c0 -19 -5 -30 -14 -30 -22 0
-28 17 -16 40 16 29 30 25 30 -10z m-828 -2 c6 -17 -1 -38 -13 -38 -5 0 -9 11
-9 25 0 26 14 34 22 13z m558 -48 c0 -5 -8 -14 -19 -19 -14 -8 -23 -6 -36 9
-18 20 -17 20 18 20 21 0 37 -4 37 -10z m290 6 c0 -3 -4 -8 -10 -11 -5 -3 -10
-1 -10 4 0 6 5 11 10 11 6 0 10 -2 10 -4z m240 -8 c0 -7 -5 -20 -10 -28 -8
-12 -10 -9 -10 13 0 15 5 27 10 27 6 0 10 -6 10 -12z m-1390 -6 c0 -5 -11 -15
-25 -22 -14 -7 -25 -19 -25 -27 0 -17 0 -17 53 13 l46 25 23 -20 c12 -12 41
-30 65 -42 24 -11 46 -25 49 -31 10 -16 -22 -40 -52 -40 -15 0 -41 -9 -58 -19
-17 -11 -39 -19 -50 -19 -10 0 -46 28 -80 63 -33 35 -70 67 -81 71 -19 7 -18
9 10 23 49 26 125 41 125 25z m590 -9 c0 -5 -4 -14 -9 -22 -8 -12 -12 -12 -25
-2 -9 7 -13 17 -10 22 6 11 44 12 44 2z m200 -29 c0 -13 -4 -24 -9 -24 -5 0
-7 10 -3 22 4 17 2 20 -11 15 -11 -4 -14 -2 -11 8 9 21 34 6 34 -21z m93 1 c3
-16 0 -24 -7 -22 -14 4 -21 47 -8 47 5 0 12 -11 15 -25z m-565 -13 c4 -25 37
-64 46 -55 3 3 1 15 -5 27 -10 20 -10 20 5 2 11 -14 13 -23 5 -32 -15 -18 -65
19 -78 58 -9 25 -8 29 7 26 9 -2 18 -14 20 -26z m782 18 c13 -8 13 -11 -2 -26
-19 -19 -38 -11 -38 17 0 21 16 24 40 9z m-480 -37 c0 -13 -3 -13 -15 -3 -8 7
-12 16 -9 21 8 13 24 1 24 -18z m-75 7 c3 -5 1 -10 -4 -10 -6 0 -11 5 -11 10
0 6 2 10 4 10 3 0 8 -4 11 -10z m221 -20 c8 0 12 -4 9 -10 -3 -5 -17 -10 -31
-10 -17 0 -24 6 -24 18 0 26 12 35 22 17 5 -8 16 -15 24 -15z m281 -4 c-4 -9
-14 -16 -24 -16 -13 0 -15 2 -5 9 7 4 12 12 11 17 -3 20 2 27 12 17 7 -7 9
-19 6 -27z m-387 -6 c0 -16 -7 -20 -30 -20 -16 0 -30 5 -30 10 0 6 9 10 19 10
11 0 23 5 26 10 10 16 15 12 15 -10z m178 -1 c12 -19 11 -20 -6 -15 -11 4 -28
-2 -42 -14 -38 -33 -45 -23 -8 14 41 41 40 41 56 15z m87 1 c0 -18 -43 -26
-59 -10 -8 8 -7 13 4 20 21 14 55 8 55 -10z m206 11 c-8 -5 -11 -16 -6 -31 8
-26 -12 -24 -29 3 -12 19 5 37 34 37 12 0 12 -2 1 -9z m237 -2 c-10 -5 -18
-19 -18 -29 0 -23 -4 -26 -55 -34 -31 -5 -36 -4 -22 4 9 6 17 20 17 30 0 27
14 25 28 -2 10 -22 11 -22 11 -2 1 24 19 44 41 44 12 -1 12 -2 -2 -11z m-364
-39 c10 -13 9 -13 -6 -1 -10 7 -18 21 -17 30 0 13 1 14 6 1 3 -8 11 -22 17
-30z m717 22 c30 -9 66 -25 80 -34 l24 -17 -27 0 c-17 -1 -48 -18 -81 -45
-100 -81 -138 -92 -177 -51 -23 25 -58 35 -44 14 3 -6 -5 -3 -20 6 -35 23 -33
33 9 41 19 3 53 19 75 35 40 29 41 29 65 12 13 -10 25 -21 25 -25 0 -11 30
-10 30 1 0 5 -11 18 -25 29 -29 23 -33 52 -7 52 9 0 42 -8 73 -18z m-1908 -10
c-41 -31 -123 -73 -123 -63 0 5 8 12 19 16 10 3 30 19 45 35 17 20 36 30 54
30 l27 0 -22 -18z m693 7 c3 -6 15 -8 26 -6 16 4 17 3 7 -9 -6 -8 -19 -14 -29
-14 -20 0 -43 23 -33 33 9 10 21 8 29 -4z m204 -9 c20 -20 20 -20 -3 -21 -87
-3 -136 -8 -160 -18 -35 -13 -37 -14 -37 -1 0 6 9 10 19 10 11 0 27 7 36 16
12 13 19 14 28 5 18 -18 61 -13 77 9 18 24 16 24 40 0z m308 -37 c9 3 26 8 37
13 18 7 18 6 6 -9 -17 -22 -45 -22 -84 1 -18 9 -34 18 -36 19 -1 1 0 6 3 12 4
5 17 -1 32 -16 14 -14 32 -23 42 -20z m-564 -4 c-9 -10 -24 -19 -32 -19 -10 0
-7 7 9 24 27 28 49 23 23 -5z m-217 9 c26 -33 39 -94 32 -141 -4 -27 -9 -51
-11 -52 -2 -2 -33 1 -69 7 l-66 12 -1 36 c-1 30 4 41 28 59 17 12 30 26 30 31
0 17 -29 11 -49 -11 -13 -14 -26 -19 -40 -14 -28 9 -26 20 7 44 24 17 29 17
38 5 8 -13 14 -11 43 10 40 30 45 31 58 14z m688 2 c-3 -5 -13 -10 -21 -10 -8
0 -12 5 -9 10 3 6 13 10 21 10 8 0 12 -4 9 -10z m230 0 c-3 -5 -14 -10 -23
-10 -15 0 -15 2 -2 10 20 13 33 13 25 0z m90 -11 c4 -11 5 -23 2 -25 -8 -8
-38 27 -32 37 10 15 23 10 30 -12z m-884 -6 c13 -16 12 -17 -3 -4 -10 7 -18
15 -18 17 0 8 8 3 21 -13z m840 -17 c11 -14 29 -27 42 -29 20 -4 20 -4 -3 -5
-16 -1 -33 9 -48 29 -13 16 -20 29 -17 29 4 0 16 -11 26 -24z m-421 -4 c0 -1
-11 -7 -25 -12 -31 -12 -33 -30 -2 -30 12 0 28 -4 35 -9 8 -4 -26 -9 -80 -10
-51 -1 -135 -8 -187 -16 -97 -16 -118 -15 -82 5 27 14 27 30 1 30 -11 0 -20 5
-20 10 0 6 6 10 13 10 6 0 29 3 49 6 34 6 36 5 31 -15 -6 -23 -4 -24 87 -21
59 1 99 23 67 36 -31 11 -9 20 52 19 34 0 61 -1 61 -3z m147 -17 c-8 -19 7
-28 73 -42 79 -17 90 -16 90 7 0 23 5 24 68 9 59 -15 71 -24 30 -24 -37 0 -49
-20 -18 -30 48 -15 9 -13 -70 4 -47 11 -125 22 -175 26 -76 7 -86 9 -65 18 35
15 34 15 20 32 -11 13 -8 15 20 15 24 0 31 -4 27 -15z m981 -78 c18 -22 31
-41 29 -44 -10 -10 -48 15 -69 46 -13 19 -37 42 -55 51 l-31 17 26 10 c23 9
30 7 47 -15 11 -14 35 -43 53 -65z m-100 33 c6 0 20 -26 32 -57 12 -32 33 -70
48 -85 l26 -28 -23 0 c-25 0 -58 32 -114 109 -31 43 -35 55 -26 72 10 19 12
19 28 5 10 -9 23 -16 29 -16z m-345 -6 c23 -19 32 -22 38 -13 6 10 12 9 28 -5
21 -19 20 -36 -4 -36 -7 0 -27 11 -43 25 -46 39 -60 30 -20 -12 34 -36 36 -41
31 -85 -6 -47 -6 -48 -42 -49 -20 0 -46 -2 -58 -5 -29 -5 -35 6 -35 69 -1 60
32 137 58 137 9 0 30 -12 47 -26z m-529 -19 c73 -9 146 -20 162 -25 25 -9 24
-9 -11 -4 -97 14 -230 24 -360 25 -87 1 -129 4 -110 9 51 13 180 11 319 -5z
m-369 -5 c-3 -5 -23 -9 -43 -9 l-37 2 40 7 c22 4 41 8 43 9 2 0 0 -3 -3 -9z
m1177 -14 c7 -8 22 -26 33 -42 48 -68 76 -92 119 -103 25 -6 50 -11 55 -11 23
0 9 28 -34 70 -41 40 -64 77 -32 53 16 -14 75 -32 109 -35 24 -2 29 -10 52
-78 13 -41 41 -120 61 -175 42 -118 98 -388 115 -565 19 -188 3 -464 -40 -722
-6 -32 -15 -86 -20 -120 -22 -129 -63 -263 -122 -403 -65 -153 -229 -442 -302
-533 -71 -88 -268 -272 -291 -272 -3 0 -33 -19 -67 -41 -87 -59 -253 -143
-323 -164 -180 -53 -256 -65 -395 -62 -134 3 -169 9 -310 57 -116 39 -269 127
-331 189 -8 9 -31 30 -50 47 -58 52 -249 289 -249 309 0 3 -18 34 -39 68 -113
179 -142 233 -180 339 -16 45 -39 104 -51 130 -24 54 -95 291 -116 388 -42
194 -55 388 -43 639 10 210 14 244 28 268 9 15 10 12 11 -20 0 -44 28 -187 39
-202 5 -5 9 -39 10 -75 2 -59 -7 -105 -38 -210 -15 -47 -13 -192 3 -265 7 -33
39 -111 73 -175 36 -70 62 -133 66 -162 10 -73 70 -193 125 -247 38 -37 70
-56 153 -89 58 -23 120 -42 138 -42 31 0 31 -1 25 -39 -7 -44 -8 -43 86 -104
74 -49 102 -98 82 -142 -10 -22 -18 -25 -69 -25 -42 0 -65 -6 -83 -20 -24 -18
-25 -23 -23 -122 1 -57 2 -106 3 -110 0 -14 86 -65 150 -90 80 -32 196 -55
313 -63 49 -3 112 -11 140 -17 29 -6 75 -15 102 -20 73 -15 455 -10 540 7 101
21 127 29 196 66 37 20 65 42 70 57 22 58 1 192 -34 214 -7 4 -26 8 -43 8 -38
0 -74 33 -74 68 0 38 8 46 70 77 30 16 70 39 88 53 30 22 33 29 30 63 l-3 38
45 6 c93 12 216 47 260 75 86 55 118 101 205 294 19 44 53 103 74 130 52 70
66 100 85 183 20 89 20 220 1 293 -24 88 -19 182 16 321 28 108 32 142 32 259
1 116 -2 140 -18 168 -11 17 -26 32 -35 33 -8 1 -37 2 -65 3 -47 1 -50 3 -53
29 -2 17 1 27 10 27 21 1 56 35 63 62 17 66 -100 208 -219 267 -77 38 -140 55
-256 71 -99 13 -111 20 -90 57 16 28 19 30 100 67 63 28 103 32 122 12z m-797
-17 c56 -7 87 -18 119 -40 24 -16 47 -29 50 -29 4 0 39 -22 79 -49 109 -73
258 -133 452 -181 28 -7 53 -16 57 -19 4 -4 -12 -45 -36 -91 -25 -47 -54 -112
-66 -145 -12 -33 -25 -69 -30 -80 -19 -44 -61 -145 -95 -230 -48 -118 -148
-365 -220 -540 -35 -86 -66 -148 -81 -160 -13 -12 -24 -32 -24 -45 -1 -24 -2
-23 -34 13 -35 42 -39 41 -70 -21 -22 -42 -14 -52 39 -52 24 0 46 -4 49 -8 3
-5 -6 -30 -19 -57 -14 -27 -25 -56 -25 -66 0 -38 -11 -48 -43 -42 -43 8 -56
20 -79 72 -24 58 -27 170 -4 187 12 8 16 29 16 82 0 39 -4 74 -10 77 -5 3 -10
47 -10 96 0 70 3 91 15 95 8 4 15 13 15 20 0 8 7 17 15 20 8 4 15 12 15 19 0
7 9 15 20 18 12 3 20 14 20 26 0 16 6 21 25 21 14 0 30 9 39 23 17 25 43 154
33 163 -3 4 -26 9 -49 11 -48 6 -59 -2 -75 -52 -8 -24 -15 -30 -39 -30 -25 0
-29 4 -32 30 -2 17 -10 34 -18 38 -10 6 -14 28 -14 77 0 58 -3 71 -19 80 -18
9 -19 19 -15 157 4 126 8 150 25 175 22 31 42 38 32 12 -5 -14 -2 -16 23 -10
16 4 38 8 49 10 40 4 60 17 83 51 23 36 36 43 47 25 14 -23 25 -7 25 35 0 36
-4 47 -25 61 -30 20 -32 30 -5 37 22 6 27 27 7 27 -8 0 -22 9 -31 19 -13 15
-26 18 -57 14 -43 -6 -48 1 -22 29 9 10 11 18 5 18 -6 0 -18 3 -26 6 -12 5
-15 2 -10 -10 4 -10 1 -16 -9 -16 -8 0 -17 6 -20 13 -3 9 -9 9 -26 -1 -22 -13
-27 -6 -11 18 16 25 -48 30 -87 7 -33 -18 -44 -12 -21 11 9 9 3 12 -29 12 -23
0 -45 -4 -48 -10 -3 -5 -14 -14 -24 -20 -16 -8 -17 -6 -13 15 4 24 3 24 -29
14 -19 -6 -41 -20 -51 -30 -21 -24 -28 -24 -28 1 0 11 -4 20 -9 20 -14 0 -32
-26 -23 -35 4 -5 -1 -5 -10 -2 -11 4 -24 -3 -38 -20 -11 -14 -20 -21 -20 -16
0 15 -37 22 -49 10 -6 -6 -11 -28 -11 -48 0 -32 -3 -36 -20 -32 -13 3 -20 0
-20 -9 0 -21 29 -58 46 -58 8 0 14 -7 14 -15 0 -9 -6 -12 -15 -9 -20 8 -19
-15 2 -38 19 -21 49 -24 56 -5 2 6 8 8 13 4 4 -4 3 -17 -4 -27 -10 -17 -8 -20
23 -26 23 -4 41 -2 50 6 18 15 17 15 39 -28 14 -26 17 -62 17 -179 0 -80 -2
-147 -4 -150 -2 -2 -15 -6 -27 -8 -29 -6 -27 -1 -33 -64 -3 -30 -11 -57 -17
-61 -5 -3 -16 -26 -24 -51 l-14 -44 -13 32 c-15 37 -39 51 -94 56 -58 6 -65 0
-65 -48 0 -88 11 -134 33 -137 13 -2 23 -13 27 -28 4 -16 14 -26 28 -28 12 -2
22 -10 22 -18 0 -8 6 -17 14 -20 8 -3 12 -12 9 -20 -3 -7 2 -17 11 -20 13 -5
16 -22 16 -91 0 -79 -2 -88 -25 -109 -19 -17 -25 -33 -25 -63 0 -52 15 -91 36
-91 14 0 16 -8 10 -57 -4 -32 -14 -84 -23 -115 -17 -56 -29 -71 -37 -45 -9 27
-36 128 -62 227 -15 58 -36 134 -46 170 -11 36 -31 110 -45 165 -13 55 -28
104 -33 109 -10 10 -32 -39 -50 -114 -7 -30 -16 -62 -20 -70 -4 -8 -19 -53
-34 -100 -58 -189 -88 -288 -107 -344 -13 -40 -16 -63 -9 -71 6 -8 50 -13 122
-14 62 -1 114 -4 117 -6 12 -12 -26 -35 -58 -35 -47 0 -95 -33 -124 -85 l-23
-40 58 -69 c64 -76 71 -102 33 -116 -14 -5 -25 -13 -25 -17 0 -5 31 -38 69
-75 84 -81 115 -91 198 -60 50 19 60 19 89 7 17 -7 43 -27 55 -45 18 -24 29
-30 46 -25 23 5 95 -25 108 -45 3 -5 25 -10 48 -10 34 0 48 6 79 37 36 35 39
36 51 18 20 -26 54 -22 185 20 62 20 118 35 124 33 19 -7 -87 -56 -167 -78
-151 -40 -210 -60 -250 -85 -82 -50 -83 -50 -108 -28 -44 40 -164 102 -297
154 -144 56 -171 71 -238 134 -81 75 -116 171 -128 350 -8 137 -29 248 -55
300 -12 25 -47 69 -77 100 l-55 56 20 22 c55 61 93 155 140 352 43 175 9 489
-81 744 -14 41 -25 75 -23 77 1 1 51 12 111 24 67 13 155 41 230 72 197 81
318 129 366 143 55 16 242 19 345 4z m212 -5 c-3 -3 -12 -4 -19 -1 -8 3 -5 6
6 6 11 1 17 -2 13 -5z m-972 -45 c39 -6 93 -14 120 -18 l50 -7 -40 -18 c-22
-10 -53 -24 -70 -32 -48 -22 -276 -82 -334 -87 -52 -5 -73 -19 -86 -58 -3 -9
-17 -21 -30 -27 -33 -15 -32 -24 10 -87 41 -61 81 -156 96 -224 42 -191 50
-259 45 -361 -8 -164 -51 -330 -106 -412 -37 -54 -37 -71 -2 -97 56 -42 99
-104 125 -181 17 -50 34 -161 36 -237 1 -43 6 -105 12 -138 11 -62 50 -158 68
-170 23 -14 9 -20 -36 -17 -54 4 -61 11 -114 108 -39 72 -73 184 -88 284 -52
354 -52 356 -103 456 l-31 62 20 28 c35 50 61 107 98 220 34 102 37 118 38
239 1 112 -3 144 -26 233 -42 158 -63 204 -127 275 -49 55 -119 71 -135 30 -9
-24 5 -55 21 -49 9 3 12 1 9 -4 -17 -28 -75 7 -75 45 0 26 54 103 78 112 9 4
33 17 53 30 46 30 132 61 249 89 107 25 173 28 275 13z m625 -39 c0 -5 -6 -10
-14 -10 -8 0 -18 5 -21 10 -3 6 3 10 14 10 12 0 21 -4 21 -10z m-110 -10 c0
-5 -4 -10 -10 -10 -5 0 -10 -7 -10 -15 0 -9 -9 -15 -22 -15 -20 1 -21 2 -7 13
9 7 14 18 12 25 -3 7 4 12 16 12 12 0 21 -4 21 -10z m230 1 c0 -12 -21 -19
-37 -13 -22 8 -14 22 12 22 14 0 25 -4 25 -9z m-140 -15 c0 -9 -30 -14 -35 -6
-4 6 3 10 14 10 12 0 21 -2 21 -4z m95 -7 c4 -6 5 -12 2 -15 -7 -7 -37 7 -37
17 0 13 27 11 35 -2z m19 -59 c27 -10 28 -9 22 15 -5 18 -2 25 9 25 8 0 15 -9
15 -19 0 -18 43 -61 61 -61 4 0 11 9 14 20 8 27 25 26 25 -2 0 -12 7 -29 16
-39 14 -15 14 -23 3 -53 -7 -20 -15 -36 -19 -37 -3 -1 -20 -2 -37 -4 -31 -2
-33 -1 -30 29 2 30 1 31 -40 31 -23 0 -48 6 -54 13 -7 6 -28 12 -46 12 -25 0
-33 -4 -34 -17 0 -15 -3 -14 -16 5 -23 33 -93 28 -93 -7 -1 -14 -2 -14 -14 2
-16 20 -69 23 -85 4 -6 -8 -8 -16 -5 -19 3 -3 -13 -8 -35 -10 -38 -3 -40 -2
-35 19 4 14 2 23 -5 23 -6 0 -11 -5 -11 -12 0 -6 -3 -9 -6 -5 -3 3 6 21 20 40
22 28 35 35 72 40 51 5 65 14 44 27 -13 8 -13 10 1 10 8 0 19 -4 25 -9 15 -14
74 -24 74 -12 0 5 -4 13 -10 16 -5 3 -10 11 -10 17 0 6 10 4 23 -5 13 -8 40
-20 60 -25 30 -8 37 -8 37 3 0 8 -4 17 -10 20 -5 3 -10 11 -10 17 0 7 12 0 28
-14 15 -15 40 -32 56 -38z m-319 30 c-3 -5 -13 -10 -21 -10 -8 0 -14 5 -14 10
0 6 9 10 21 10 11 0 17 -4 14 -10z m222 4 c-3 -3 -12 -4 -19 -1 -8 3 -5 6 6 6
11 1 17 -2 13 -5z m201 -22 c3 -16 -2 -22 -15 -21 -11 0 -13 3 -5 6 10 4 9 10
-5 25 -17 20 -17 20 2 17 12 -3 21 -14 23 -27z m751 -7 c46 -15 102 -38 125
-53 76 -49 166 -154 166 -195 0 -34 -30 -67 -62 -67 -19 0 -28 4 -25 13 2 6
13 11 25 10 34 -4 47 22 28 52 -21 32 -38 39 -71 31 -100 -25 -236 -294 -267
-527 -19 -144 16 -365 74 -471 19 -33 20 -40 8 -70 -8 -18 -17 -35 -20 -38 -9
-8 -36 -70 -50 -115 -6 -22 -16 -49 -21 -60 -5 -11 -20 -74 -34 -140 -25 -120
-39 -172 -55 -210 -4 -11 -14 -36 -21 -55 -11 -31 -141 -224 -157 -234 -4 -2
-25 -1 -46 3 -35 5 -38 8 -25 21 73 74 106 162 119 315 12 136 23 182 57 246
28 51 90 123 130 149 l22 15 -20 59 c-64 187 -77 419 -34 631 33 161 117 351
183 412 l25 23 -26 28 c-14 15 -29 39 -32 55 -8 32 -40 57 -71 57 -26 0 -262
74 -326 103 -27 11 -48 24 -48 28 0 11 114 17 250 13 90 -2 133 -9 199 -29z
m-1149 5 c0 -5 -7 -10 -16 -10 -8 0 -12 5 -9 10 3 6 10 10 16 10 5 0 9 -4 9
-10z m-105 -10 c-3 -5 -11 -10 -16 -10 -6 0 -7 5 -4 10 3 6 11 10 16 10 6 0 7
-4 4 -10z m593 -19 c3 -8 -1 -12 -9 -9 -7 2 -15 10 -17 17 -3 8 1 12 9 9 7 -2
15 -10 17 -17z m-618 -61 c0 -5 -4 -10 -10 -10 -5 0 -10 5 -10 10 0 6 5 10 10
10 6 0 10 -4 10 -10z m275 -25 c0 -11 -8 -21 -17 -23 -14 -3 -18 3 -18 23 0
20 4 26 18 23 9 -2 17 -12 17 -23z m-105 -6 c0 -24 -23 -21 -28 4 -2 10 3 17
12 17 10 0 16 -9 16 -21z m218 -2 c4 -20 -25 -34 -39 -20 -14 14 1 45 20 41 9
-2 17 -11 19 -21z m272 16 c-1 -18 -18 -35 -24 -24 -4 6 -4 16 -1 21 7 12 25
13 25 3z m17 -35 c-3 -8 -6 -5 -6 6 -1 11 2 17 5 13 3 -3 4 -12 1 -19z m-600
-10 c-3 -8 -6 -5 -6 6 -1 11 2 17 5 13 3 -3 4 -12 1 -19z m-849 -45 c100 -149
151 -379 121 -544 l-13 -74 -7 130 c-5 105 -12 146 -34 210 -35 102 -90 212
-122 247 -24 25 -24 29 -12 57 8 17 17 31 21 31 4 0 25 -26 46 -57z m812 36
c0 -6 -4 -7 -10 -4 -5 3 -10 11 -10 16 0 6 5 7 10 4 6 -3 10 -11 10 -16z m140
-19 c0 -35 -25 -41 -33 -8 -7 26 -1 38 19 38 9 0 14 -11 14 -30z m60 -4 c0
-28 -8 -36 -26 -29 -14 5 -20 44 -8 56 12 12 34 -6 34 -27z m56 9 c8 -20 -4
-51 -15 -39 -5 5 -12 19 -16 32 -5 16 -2 22 10 22 8 0 18 -7 21 -15z m54 -15
c0 -20 -5 -30 -15 -30 -15 0 -21 40 -8 53 14 15 23 6 23 -23z m260 0 c0 -5 -7
-10 -16 -10 -8 0 -12 5 -9 10 3 6 10 10 16 10 5 0 9 -4 9 -10z m-100 -10 c0
-5 -5 -10 -11 -10 -5 0 -7 5 -4 10 3 6 8 10 11 10 2 0 4 -4 4 -10z m-1331 -85
c17 -24 31 -50 31 -59 0 -27 -20 -28 -32 -2 -6 14 -15 26 -20 26 -13 0 -10
-16 6 -29 22 -19 8 -51 -23 -51 -14 0 -41 -9 -59 -20 -38 -24 -55 -25 -71 -6
-7 8 -32 24 -57 35 -43 21 -50 33 -38 65 9 23 21 20 65 -15 21 -17 39 -26 39
-21 0 5 -16 20 -35 33 -19 13 -35 30 -35 37 0 25 35 11 77 -30 24 -23 43 -37
43 -31 0 6 -7 13 -15 17 -25 9 -17 34 14 41 21 4 33 15 40 36 13 37 29 31 70
-26z m2271 5 c0 -11 5 -28 11 -38 10 -16 5 -25 -31 -63 -84 -88 -170 -320
-184 -499 -3 -30 -6 -82 -7 -115 l-1 -60 -10 60 c-12 76 -2 304 16 370 35 127
106 283 151 331 37 39 55 43 55 14z m-1216 -16 c10 -4 16 -18 16 -40 0 -30 -3
-34 -25 -34 -22 0 -25 4 -25 33 0 44 7 52 34 41z m96 -38 c0 -40 -8 -47 -38
-39 -16 4 -22 13 -22 32 0 34 7 41 37 41 20 0 23 -5 23 -34z m1170 -50 c0 -14
-13 -38 -30 -54 -38 -39 -26 -51 14 -13 29 27 35 28 94 23 79 -6 90 -23 42
-64 -40 -33 -30 -37 18 -8 28 17 33 18 38 5 10 -24 -4 -45 -28 -45 -13 0 -38
-9 -56 -20 -26 -16 -37 -18 -53 -9 -20 10 -20 11 -3 30 9 10 14 22 11 26 -4 4
-14 -2 -21 -13 -8 -10 -18 -16 -22 -12 -4 4 4 16 17 27 20 17 21 20 7 21 -10
0 -18 -3 -18 -8 0 -16 -41 -31 -70 -25 -63 12 -58 80 10 137 39 32 50 33 50 2z
m-2230 -132 c65 -261 39 -455 -87 -646 l-24 -36 25 -39 c43 -65 83 -193 110
-349 14 -82 32 -170 40 -196 17 -53 12 -57 -37 -31 -79 40 -126 113 -150 231
-8 39 -34 109 -56 156 -66 134 -73 212 -30 375 34 134 35 237 4 398 -15 78
-25 152 -21 166 3 15 18 30 36 37 16 7 30 16 30 21 0 5 18 9 40 9 28 0 45 6
57 20 10 11 20 20 23 20 4 0 21 -61 40 -136z m950 112 c0 -14 -4 -28 -10 -31
-6 -4 -10 7 -10 24 0 17 5 31 10 31 6 0 10 -11 10 -24z m70 -11 c0 -13 -6 -25
-12 -27 -24 -9 -38 3 -38 31 0 25 3 28 25 23 18 -3 25 -11 25 -27z m33 0 c-7
-21 -13 -19 -13 6 0 11 4 18 10 14 5 -3 7 -12 3 -20z m-1380 4 c11 -7 26 -16
31 -21 6 -5 20 -15 30 -22 27 -19 11 -39 -25 -32 -16 3 -29 1 -29 -4 0 -6 14
-10 30 -10 17 0 30 -5 30 -11 0 -8 -13 -9 -41 -5 -24 4 -38 3 -35 -3 4 -5 24
-12 46 -16 42 -7 45 -11 56 -89 l7 -48 -27 17 c-25 17 -26 17 -26 -4 0 -22
-14 -28 -25 -11 -10 16 -37 12 -51 -7 -16 -23 -23 -15 -31 31 l-6 36 47 0 c25
0 46 5 46 10 0 6 -14 10 -31 10 -17 0 -39 5 -50 10 -20 11 -20 12 3 110 18 80
16 77 51 59z m1305 -72 c3 -23 0 -27 -22 -27 -22 0 -26 4 -26 30 0 25 3 29 23
26 15 -2 23 -11 25 -29z m72 -7 c0 -25 -4 -30 -25 -30 -21 0 -25 5 -25 30 0
25 4 30 25 30 21 0 25 -5 25 -30z m1063 -34 c3 -8 25 -20 49 -27 24 -6 55 -17
71 -25 25 -13 27 -19 27 -72 0 -33 -11 -88 -26 -132 -61 -183 -71 -273 -45
-380 28 -109 28 -226 1 -314 -12 -36 -24 -66 -29 -66 -15 0 -69 -114 -76 -160
-10 -65 -28 -102 -71 -150 -37 -41 -118 -90 -149 -90 -18 0 -16 9 27 150 17
52 34 111 39 130 18 72 59 171 108 259 l50 92 -20 33 c-10 18 -30 65 -44 104
-45 130 -31 353 37 565 31 95 40 111 51 83z m-1099 -28 c-1 -10 -2 -22 -3 -28
-2 -16 -51 -12 -57 5 -11 27 4 47 33 43 19 -2 28 -8 27 -20z m46 -20 c0 -10
-4 -18 -9 -18 -13 0 -21 27 -14 46 5 13 7 13 14 2 5 -7 9 -21 9 -30z m-133 0
c-3 -7 -5 -2 -5 12 0 14 2 19 5 13 2 -7 2 -19 0 -25z m1477 3 c12 -19 -6 -39
-40 -45 -19 -4 -34 -11 -34 -16 0 -5 14 -5 32 1 47 13 48 13 47 -28 -2 -57
-13 -100 -22 -86 -5 8 -14 10 -25 4 -9 -5 -36 -13 -59 -18 -33 -8 -43 -7 -43
3 0 28 14 44 39 45 27 0 73 16 56 19 -5 1 -25 1 -42 0 -32 -1 -33 0 -33 39 0
38 3 42 48 64 53 27 68 31 76 18z m-1433 -41 c5 0 9 -9 9 -20 0 -11 -6 -20
-14 -20 -8 0 -21 -3 -30 -6 -12 -5 -16 0 -16 18 0 30 9 40 28 33 7 -3 18 -5
23 -5z m-73 -22 c-4 -27 -28 -36 -28 -10 0 20 8 32 22 32 5 0 8 -10 6 -22z
m172 -4 c0 -23 -3 -25 -32 -22 -25 2 -34 8 -36 26 -3 19 1 22 32 22 32 0 36
-3 36 -26z m-140 -59 c0 -21 -5 -25 -30 -25 -19 0 -33 6 -37 16 -7 19 13 34
45 34 17 0 22 -6 22 -25z m80 0 c0 -21 -5 -25 -30 -25 -25 0 -30 4 -30 25 0
21 5 25 30 25 25 0 30 -4 30 -25z m60 -6 c0 -12 -7 -19 -20 -19 -19 0 -28 28
-14 43 11 11 34 -5 34 -24z m-1282 -30 c7 -28 11 -85 11 -127 -1 -42 -4 -67
-6 -54 -2 12 -11 22 -20 22 -9 0 -31 9 -50 21 -18 12 -40 19 -47 16 -11 -4
-19 14 -31 69 -9 42 -15 78 -12 80 3 3 8 -11 11 -32 6 -31 10 -35 29 -30 12 3
41 6 65 6 39 0 43 2 40 23 -2 15 -9 21 -20 19 -21 -3 -23 9 -6 26 19 19 24 15
36 -39z m-96 9 c-9 -9 -15 -9 -24 0 -9 9 -7 12 12 12 19 0 21 -3 12 -12z
m2064 -146 c2 -190 22 -291 92 -445 l31 -67 -34 -23 c-47 -32 -98 -101 -128
-173 -30 -72 -35 -93 -47 -219 -6 -55 -18 -122 -28 -150 -23 -66 -88 -170
-118 -190 l-24 -15 6 73 c6 70 5 74 -15 80 -21 5 -46 51 -36 67 3 4 -2 10 -10
14 -11 4 -15 22 -15 71 0 63 -1 65 -25 65 -27 0 -30 6 -15 30 8 12 13 13 30 3
54 -34 93 -5 105 80 3 26 20 70 37 97 16 27 27 53 24 58 -3 5 -24 8 -46 6 -44
-3 -48 4 -24 41 13 20 14 28 4 39 -9 12 -3 39 30 133 23 65 50 143 60 173 11
30 44 122 74 204 31 82 56 157 56 166 0 13 8 30 14 30 1 0 2 -66 2 -148z
m-839 132 c22 -6 35 -36 26 -60 -3 -10 -22 -14 -59 -14 -52 0 -54 1 -54 28 0
46 29 61 87 46z m153 -32 c0 -32 -16 -52 -42 -52 -12 0 -18 8 -18 24 0 14 -4
28 -10 31 -22 13 -8 25 30 25 37 0 40 -2 40 -28z m-356 -4 c7 -29 -5 -40 -40
-36 -23 2 -30 9 -32 31 -3 25 -1 27 31 27 27 0 36 -5 41 -22z m430 0 c26 -37
20 -48 -24 -48 -43 0 -46 5 -28 45 14 31 32 32 52 3z m552 -60 c-8 -18 -22
-60 -32 -93 -9 -33 -20 -64 -25 -70 -5 -5 -9 -18 -9 -30 0 -12 -4 -25 -9 -30
-4 -6 -27 -64 -51 -130 -70 -199 -73 -205 -81 -211 -24 -14 -25 12 -4 69 56
151 220 546 223 537 2 -5 -3 -24 -12 -42z m558 18 c-3 -15 -8 -25 -11 -23 -2
3 -1 17 3 31 3 15 8 25 11 23 2 -3 1 -17 -3 -31z m125 2 c-5 -18 -9 -50 -9
-70 l0 -37 -69 4 -70 4 -9 -42 c-10 -46 -7 -57 13 -57 8 0 12 11 11 31 0 18 5
34 12 36 7 3 12 -4 12 -16 0 -27 26 -27 33 -1 3 11 10 20 16 20 14 0 14 -27 1
-35 -16 -10 -11 -25 8 -25 15 0 17 -6 14 -35 -4 -31 -6 -33 -16 -19 -15 20
-78 23 -101 4 -11 -9 -15 -26 -13 -54 3 -40 4 -41 41 -44 36 -3 38 -2 32 20
-10 32 -15 35 -25 18 -7 -12 -10 -12 -16 3 -10 28 9 41 43 30 20 -8 27 -16 26
-32 -2 -15 3 -21 17 -21 14 0 20 -7 20 -23 0 -30 -35 -47 -84 -42 -29 2 -36 0
-36 -14 0 -25 11 -33 26 -20 7 6 35 9 61 7 l48 -3 9 -48 c4 -26 5 -72 1 -102
l-6 -55 -61 7 c-66 7 -78 0 -78 -50 0 -24 7 -31 50 -49 28 -11 50 -23 50 -27
-1 -13 -29 -55 -30 -44 0 19 -40 37 -53 24 -18 -18 -37 -13 -37 10 0 16 5 20
20 16 14 -3 20 0 20 10 0 12 -7 14 -29 10 l-30 -6 17 37 c24 57 26 227 2 325
-21 86 -19 157 7 249 13 46 19 56 29 47 23 -19 41 -4 37 28 -6 40 18 63 67 63
l39 0 -10 -32z m-1514 -48 c0 -30 -3 -35 -25 -36 -37 -2 -47 5 -53 34 -7 37
-1 44 41 40 35 -3 37 -5 37 -38z m125 -7 l0 -34 -47 3 c-47 3 -48 4 -51 38
l-3 35 51 -3 c50 -4 50 -4 50 -39z m-310 7 c0 -20 -5 -30 -15 -30 -10 0 -15
10 -15 30 0 20 5 30 15 30 10 0 15 -10 15 -30z m87 -2 c-2 -26 -7 -34 -26 -36
-26 -4 -41 12 -41 46 0 19 5 22 35 22 33 0 35 -2 32 -32z m331 -5 c3 -25 -1
-31 -21 -35 -41 -8 -67 8 -67 42 0 29 1 30 43 27 39 -3 42 -5 45 -34z m106 21
c10 -4 16 -18 16 -35 0 -28 -2 -29 -44 -29 -45 0 -56 10 -56 51 0 15 7 19 34
19 19 0 41 -3 50 -6z m56 -21 c0 -20 -17 -50 -24 -43 -2 3 -2 17 1 33 6 30 23
37 23 10z m-1550 -23 c11 -7 9 -11 -13 -19 -37 -14 -37 -14 -37 9 0 21 24 27
50 10z m1018 -44 c3 -12 -1 -17 -10 -14 -7 3 -15 13 -16 22 -3 12 1 17 10 14
7 -3 15 -13 16 -22z m92 4 c0 -16 -7 -20 -35 -20 -28 0 -35 4 -35 20 0 16 7
20 35 20 28 0 35 -4 35 -20z m110 0 c0 -17 -7 -20 -38 -20 -43 0 -53 6 -45 26
3 9 20 14 44 14 32 0 39 -3 39 -20z m118 -3 c3 -16 -3 -18 -45 -15 -37 2 -49
7 -51 21 -3 16 3 18 45 15 37 -2 49 -7 51 -21z m112 -2 c0 -11 -12 -15 -45
-15 -33 0 -45 4 -45 15 0 11 12 15 45 15 33 0 45 -4 45 -15z m-1370 -16 c0 -6
-7 -35 -16 -65 -12 -43 -19 -54 -32 -50 -9 2 -31 7 -48 11 -26 5 -31 10 -26
27 4 17 2 20 -11 15 -19 -7 -23 18 -8 42 6 10 10 10 16 1 4 -7 10 -8 14 -3 18
26 111 45 111 22z m1300 -31 c0 -6 -7 -7 -16 -4 -9 3 -27 6 -40 6 -14 0 -23 4
-20 8 7 11 76 2 76 -10z m-307 5 c-7 -2 -19 -2 -25 0 -7 3 -2 5 12 5 14 0 19
-2 13 -5z m94 0 c-10 -9 -58 -10 -63 -1 -3 4 12 8 32 8 21 0 34 -3 31 -7z
m113 -3 c0 -5 -17 -7 -37 -4 -52 6 -54 14 -5 14 23 0 42 -4 42 -10z m140 0 c0
-5 -4 -10 -10 -10 -5 0 -10 5 -10 10 0 6 5 10 10 10 6 0 10 -4 10 -10z m-280
-35 c0 -10 -11 -15 -35 -15 -24 0 -35 5 -35 15 0 10 11 15 35 15 24 0 35 -5
35 -15z m98 3 c-5 -15 -38 -19 -38 -5 0 8 -4 7 -9 -2 -5 -8 -14 -10 -22 -6 -9
6 -8 10 7 16 30 12 66 10 62 -3z m90 0 c-3 -7 -17 -13 -33 -13 -16 0 -30 6
-32 13 -3 8 7 12 32 12 25 0 35 -4 33 -12z m67 -3 c0 -5 -10 -11 -22 -13 -16
-2 -23 2 -23 13 0 11 7 15 23 13 12 -2 22 -7 22 -13z m-124 -35 c14 0 18 -6
15 -22 -2 -19 -10 -23 -40 -24 -31 -1 -36 2 -36 21 0 27 10 37 28 30 7 -3 22
-5 33 -5z m-81 -20 c0 -15 -7 -20 -25 -20 -14 0 -28 -1 -32 -2 -5 -2 -9 7 -11
20 -3 19 1 22 32 22 29 0 36 -4 36 -20z m190 -5 c0 -22 -4 -25 -34 -25 -38 0
-49 10 -40 34 4 10 18 16 40 16 30 0 34 -3 34 -25z m-1347 -34 c5 -5 7 -24 5
-42 -3 -29 -6 -34 -25 -31 -23 3 -31 -12 -13 -23 13 -8 3 -25 -16 -25 -8 0
-14 8 -14 18 0 14 -4 12 -21 -8 l-21 -25 6 33 c4 23 2 32 -9 32 -7 0 -16 -12
-18 -27 -3 -16 -4 -3 -3 27 1 46 4 55 19 52 12 -2 17 4 17 19 0 20 3 21 43 15
23 -4 46 -11 50 -15z m810 -63 c10 -40 22 -86 27 -103 58 -204 83 -313 76
-331 -4 -11 -12 -13 -28 -8 -13 4 -31 7 -41 6 -12 0 -23 10 -31 29 -7 17 -17
31 -22 32 -5 1 -8 95 -7 220 2 121 -1 216 -6 213 -5 -3 -12 -101 -16 -217 -7
-189 -9 -213 -26 -227 -11 -9 -19 -22 -19 -29 0 -7 -6 -13 -12 -14 -20 -2 -73
3 -76 6 -2 2 9 45 23 96 15 52 35 123 45 159 57 201 72 240 89 240 4 0 14 -33
24 -72z m297 33 c0 -17 -4 -32 -9 -35 -17 -11 -41 6 -41 28 0 27 8 36 32 36
13 0 18 -8 18 -29z m60 21 c0 -15 -25 -62 -32 -62 -10 0 -10 54 -1 63 9 10 33
9 33 -1z m188 -35 c2 -15 -1 -27 -7 -27 -6 0 -11 3 -11 8 0 4 -3 18 -7 31 -4
18 -2 23 8 19 8 -2 15 -17 17 -31z m-70 -9 c4 -33 -31 -49 -55 -25 -24 24 -8
59 25 55 21 -2 28 -9 30 -30z m-222 -76 c-11 -10 -15 4 -8 28 l7 25 3 -23 c2
-13 1 -26 -2 -30z m92 21 c-2 -21 -9 -29 -27 -31 -30 -5 -45 10 -36 37 5 15
15 21 36 21 27 0 30 -3 27 -27z m197 -4 c0 -21 -5 -24 -42 -27 -53 -4 -58 17
-10 41 40 20 52 17 52 -14z m-130 1 c33 -12 24 -30 -16 -30 -27 0 -39 17 -22
33 8 9 7 9 38 -3z m-115 -70 c0 -29 -1 -30 -50 -30 -46 0 -50 2 -50 23 0 33 7
37 57 37 41 0 43 -1 43 -30z m90 0 c0 -28 -3 -30 -35 -30 -32 0 -35 2 -35 30
0 28 3 30 35 30 32 0 35 -2 35 -30z m98 -6 c3 -29 2 -30 -32 -26 -60 7 -62 66
-3 60 28 -3 32 -7 35 -34z m73 26 c14 0 19 -7 19 -30 0 -28 -3 -30 -35 -30
-34 0 -35 2 -35 36 0 29 3 35 16 30 9 -3 24 -6 35 -6z m-1461 -10 c23 15 76
12 90 -5 14 -17 5 -35 -16 -35 -8 0 -12 -5 -9 -11 4 -6 13 -8 20 -5 15 5 51
-42 40 -52 -3 -4 -10 0 -15 7 -10 17 -38 7 -47 -16 -4 -10 -12 -22 -20 -26 -7
-4 -13 -18 -13 -30 l0 -21 -16 23 c-18 25 -54 135 -54 165 0 14 3 16 13 8 8
-7 18 -7 27 -2z m1140 -81 c0 -15 -4 -19 -16 -15 -9 3 -18 6 -20 6 -2 0 -4 7
-4 15 0 8 9 15 20 15 14 0 20 -7 20 -21z m110 -4 c0 -22 -4 -25 -39 -25 -30 0
-40 4 -44 19 -7 27 0 31 45 31 34 0 38 -3 38 -25z m90 0 c0 -21 -5 -25 -29
-25 -17 0 -33 5 -36 10 -13 21 4 40 35 40 25 0 30 -4 30 -25z m82 -4 c-3 -32
-6 -35 -37 -27 -18 5 -25 13 -25 32 0 23 4 25 33 22 27 -3 32 -7 29 -27z m35
-13 c-3 -7 -5 -2 -5 12 0 14 2 19 5 13 2 -7 2 -19 0 -25z m-273 -24 c17 -7 23
-84 7 -84 -28 0 -41 15 -41 44 0 43 7 50 34 40z m116 -45 c0 -40 0 -40 -36
-37 -34 3 -37 5 -40 41 l-3 37 39 0 40 0 0 -41z m80 -5 c0 -44 -1 -45 -27 -42
-25 3 -28 7 -31 46 -3 41 -2 42 27 42 30 0 31 -1 31 -46z m63 34 c2 -7 2 -28
0 -45 -4 -24 -11 -33 -24 -33 -16 0 -19 8 -19 45 0 37 3 45 19 45 10 0 21 -6
24 -12z m377 -10 c0 -32 -15 -52 -34 -45 -16 6 -22 47 -9 60 16 16 43 6 43
-15z m-1700 -4 c0 -8 -5 -12 -10 -9 -6 4 -8 11 -5 16 9 14 15 11 15 -7z m79
-114 c0 -8 -4 -5 -9 8 -5 12 -13 22 -18 22 -18 0 -20 -13 -6 -35 12 -18 12
-25 3 -31 -7 -4 -15 -2 -17 4 -6 20 -22 13 -22 -9 0 -12 -4 -17 -11 -13 -6 3
-9 15 -6 25 4 14 0 19 -13 19 -10 0 -20 -5 -22 -11 -2 -6 -11 6 -21 26 -10 20
-13 34 -7 30 6 -3 22 3 36 14 15 12 37 21 50 21 16 0 24 6 25 18 0 20 38 -66
38 -88z m1501 85 c7 -9 10 -18 7 -21 -10 -10 -47 7 -47 22 0 19 24 18 40 -1z
m1008 -11 c1 0 -1 -10 -5 -22 -8 -19 -10 -19 -47 -7 -48 17 -66 33 -48 44 10
6 81 -4 100 -15z m-1546 -50 c-2 -10 -5 -26 -8 -34 -8 -23 -22 7 -16 36 5 29
29 27 24 -2z m60 -12 c-31 -32 -42 -31 -42 4 0 21 5 24 34 24 l35 0 -27 -28z
m106 -10 c4 -28 -23 -30 -38 -3 -7 14 -6 21 3 24 20 9 32 2 35 -21z m112 18
c0 -5 -2 -10 -4 -10 -3 0 -8 5 -11 10 -3 6 -1 10 4 10 6 0 11 -4 11 -10z m327
-28 c-7 -53 -45 -138 -57 -126 -18 18 29 164 54 164 5 0 6 -17 3 -38z m123 22
c0 -2 -7 -4 -15 -4 -8 0 -15 4 -15 10 0 5 7 7 15 4 8 -4 15 -8 15 -10z m-484
-5 c9 -16 -21 -43 -40 -36 -9 4 -16 16 -16 27 0 15 7 20 24 20 14 0 28 -5 32
-11z m-126 -40 c0 -15 -29 -17 -40 -3 -10 11 -10 17 1 30 12 14 14 14 26 -2 7
-10 13 -21 13 -25z m565 11 c16 -18 17 -21 1 -44 -9 -14 -16 -38 -16 -54 0
-39 -19 -55 -44 -37 -18 14 -18 16 -2 50 10 20 20 52 23 71 6 39 13 42 38 14z
m-395 -36 c0 -16 -28 -26 -36 -13 -3 6 -3 22 1 37 6 26 7 26 21 8 8 -11 14
-25 14 -32z m-600 15 c0 -5 -4 -9 -10 -9 -5 0 -10 7 -10 16 0 8 5 12 10 9 6
-3 10 -10 10 -16z m27 -1 c-3 -8 -6 -5 -6 6 -1 11 2 17 5 13 3 -3 4 -12 1 -19z
m1657 -3 c7 -26 34 -33 53 -14 6 6 17 9 23 7 9 -3 8 -8 -4 -20 -20 -21 -21
-38 0 -38 13 0 13 -4 -3 -31 -29 -49 -50 -64 -68 -49 -9 7 -18 10 -21 7 -3 -3
4 -14 15 -24 25 -21 25 -21 6 -68 -16 -36 -16 -37 -41 -20 -36 24 -44 9 -10
-18 l28 -23 -20 -40 c-12 -21 -32 -52 -45 -69 l-25 -30 -18 43 c-10 23 -22 42
-26 42 -11 0 -10 -9 8 -60 l16 -45 -29 -22 c-29 -24 -129 -58 -200 -69 l-43
-7 -1 44 -1 44 -9 -41 c-8 -33 -15 -43 -34 -46 -14 -3 -27 -3 -30 0 -6 6 20
50 44 73 9 8 27 32 41 51 17 26 36 40 63 46 36 10 39 8 48 -15 5 -13 9 -31 9
-39 0 -8 5 -14 10 -14 6 0 10 11 10 24 0 14 -4 28 -10 31 -5 3 -10 15 -10 26
0 26 37 25 45 -1 3 -11 10 -20 15 -20 6 0 5 11 0 26 -9 24 -6 31 33 68 23 22
54 56 69 75 23 30 29 33 42 21 9 -7 20 -10 24 -6 4 4 -1 13 -11 20 -29 22 -16
121 25 186 17 26 25 25 32 -5z m-1358 -10 c9 -22 -12 -42 -43 -41 -24 1 -48
26 -24 26 6 0 11 7 11 15 0 20 49 20 56 0z m62 -7 c17 -17 15 -31 -5 -24 -9 4
-20 1 -25 -6 -5 -9 -8 -4 -8 15 0 29 17 36 38 15z m-1018 -29 c0 -11 7 -36 15
-55 l15 -36 -29 31 c-16 17 -35 31 -42 31 -22 0 -49 -32 -49 -59 -1 -20 -3
-22 -9 -11 -12 20 -26 97 -16 87 5 -4 19 3 32 15 13 12 23 19 23 15 0 -3 10
-3 23 2 27 11 37 6 37 -20z m1245 -9 c-3 -5 -13 -10 -21 -10 -8 0 -14 5 -14
10 0 6 9 10 21 10 11 0 17 -4 14 -10z m-486 -51 c6 -18 11 -33 11 -35 0 -9
-94 4 -97 13 -5 15 37 53 58 53 10 0 21 -13 28 -31z m191 4 c0 -16 -4 -34 -9
-42 -13 -20 -32 -3 -27 25 3 13 0 24 -5 24 -5 0 -9 -13 -9 -30 0 -41 -20 -38
-21 3 l-2 32 -7 -35 c-8 -38 -13 -32 -10 13 1 15 -3 27 -9 27 -6 0 -11 -13
-11 -30 0 -38 -20 -40 -21 -2 l-1 27 -8 -30 c-8 -30 -8 -30 -9 8 l-1 37 75 0
75 0 0 -27z m59 18 c10 -7 11 -13 1 -30 -15 -28 -34 -22 -38 12 -3 28 10 35
37 18z m231 -37 c0 -31 -23 -28 -28 4 -2 15 2 22 12 22 11 0 16 -9 16 -26z
m203 19 c2 -5 -1 -21 -7 -38 -9 -24 -16 -29 -34 -27 -18 3 -23 8 -19 23 3 10
1 22 -4 25 -5 3 -9 -6 -9 -20 0 -14 -4 -26 -10 -26 -5 0 -10 11 -10 24 0 14
-4 28 -10 31 -6 4 -10 -7 -10 -24 0 -38 -15 -40 -28 -3 -10 25 -10 26 -11 4
-1 -32 -25 -23 -29 11 l-3 27 90 0 c49 0 92 -3 94 -7z m45 -24 c-2 -6 -8 -10
-13 -10 -5 0 -11 4 -13 10 -2 6 4 11 13 11 9 0 15 -5 13 -11z m-1488 -9 c0 -5
-13 -16 -29 -25 -33 -17 -51 -4 -31 20 14 17 60 20 60 5z m648 -33 c3 -32 0
-39 -17 -44 -12 -3 -21 -10 -21 -15 0 -5 9 -6 20 -3 18 6 20 2 20 -34 0 -23
-3 -41 -7 -41 -13 1 -103 127 -103 144 0 22 30 36 70 33 33 -2 35 -4 38 -40z
m-538 -57 c0 -3 -16 -21 -35 -41 -19 -20 -31 -40 -27 -43 3 -4 23 12 44 35 21
23 38 39 38 34 0 -5 -7 -17 -17 -27 -9 -10 -13 -21 -9 -26 4 -4 18 5 29 19 20
23 25 24 55 14 18 -6 39 -22 46 -36 26 -49 42 -75 69 -111 25 -33 27 -39 12
-44 -16 -7 -165 34 -165 44 0 3 11 20 25 38 28 37 35 72 7 38 -9 -12 -24 -31
-32 -43 -8 -11 -21 -21 -30 -21 -24 0 -135 94 -159 135 -23 40 -26 49 -11 40
6 -3 13 1 16 9 6 17 41 32 63 27 10 -2 12 4 8 20 -5 18 1 15 34 -17 21 -21 39
-41 39 -44z m893 73 c-7 -2 -19 -2 -25 0 -7 3 -2 5 12 5 14 0 19 -2 13 -5z m3
-28 c14 -4 6 -104 -9 -123 -8 -10 -15 -8 -34 9 -12 13 -23 28 -23 34 0 6 -16
17 -36 23 -28 8 -36 8 -41 -4 -3 -8 -11 -14 -19 -14 -10 0 -12 9 -9 33 4 29 4
29 -6 -5 -7 -26 -17 -38 -29 -38 -10 0 -23 -7 -30 -15 -26 -31 -40 -18 -35 33
l4 47 -11 -50 c-13 -59 -16 -64 -28 -45 -8 13 -10 12 -10 -2 0 -10 -4 -18 -10
-18 -11 0 -14 133 -3 144 7 6 305 -1 329 -9z m336 -16 c57 -1 124 -4 151 -7
l47 -4 0 -58 c0 -34 -5 -62 -12 -66 -7 -5 -9 -2 -6 8 4 8 2 21 -3 29 -6 10 -9
6 -9 -14 0 -18 -4 -26 -11 -21 -7 4 -9 24 -6 53 4 30 3 39 -3 26 -5 -11 -9
-32 -9 -46 -1 -15 -9 -36 -18 -47 -19 -22 -69 -32 -91 -19 -7 5 -12 3 -12 -7
0 -23 -15 -20 -52 12 -18 16 -48 35 -65 43 -32 13 -33 16 -33 73 0 46 3 57 14
53 8 -3 61 -7 118 -8z m-219 -74 c78 -44 78 -41 -19 -162 -48 -59 -88 -110
-90 -112 -5 -6 -110 48 -123 63 -11 13 -10 20 6 39 16 20 176 196 179 197 1 0
22 -11 47 -25z m156 -91 c25 -21 29 -29 21 -44 -6 -10 -10 -36 -10 -58 0 -32
-7 -45 -42 -80 -24 -23 -52 -51 -62 -62 -25 -25 -48 -25 -71 0 -10 11 -33 25
-51 32 -40 14 -40 17 -14 49 11 13 23 29 27 34 24 31 119 141 128 147 19 14
43 8 74 -18z m118 -30 c-3 -3 -12 -4 -19 -1 -8 3 -5 6 6 6 11 1 17 -2 13 -5z
m168 -4 c-3 -5 -18 -10 -33 -9 -24 0 -25 1 -7 9 28 12 47 12 40 0z m-945 -35
c0 -18 -4 -23 -15 -19 -29 11 -15 -4 32 -35 25 -17 43 -31 38 -31 -4 0 -2 -7
5 -15 26 -32 -7 -13 -44 25 -22 22 -43 40 -48 40 -12 0 -10 29 5 45 18 21 27
18 27 -10z m720 -5 c23 -23 25 -30 9 -30 -12 0 -38 29 -39 43 0 12 9 8 30 -13z
m-655 -30 c10 -11 16 -20 13 -20 -3 0 -13 9 -23 20 -10 11 -16 20 -13 20 3 0
13 -9 23 -20z m-213 -27 c24 -9 61 -28 83 -43 54 -36 186 -98 246 -116 73 -22
199 -89 242 -129 37 -34 67 -45 67 -26 0 14 96 66 155 85 28 9 95 29 150 46
55 16 137 47 183 70 67 32 95 40 139 40 60 0 82 -15 83 -57 0 -24 -52 -68
-113 -96 -47 -21 -47 -21 -47 6 0 43 -13 50 -82 45 -92 -8 -194 -65 -224 -126
-21 -44 -12 -80 23 -88 l26 -7 -22 -19 c-14 -11 -39 -18 -65 -18 -57 0 -158
-25 -198 -50 -18 -11 -38 -22 -44 -25 -6 -3 -28 10 -49 30 -44 42 -123 83
-176 91 -20 4 -49 16 -65 29 -27 22 -28 23 -7 29 34 11 38 43 13 95 -24 52
-62 82 -139 112 -78 29 -151 21 -151 -16 0 -24 -24 -17 -73 20 -25 19 -50 35
-55 35 -5 0 -19 11 -32 25 -22 23 -22 25 -6 50 20 31 73 34 138 8z m863 7 c8
-13 -5 -13 -25 0 -13 8 -13 10 2 10 9 0 20 -4 23 -10z m-580 -31 c11 -17 -1
-21 -15 -4 -8 9 -8 15 -2 15 6 0 14 -5 17 -11z m590 0 c11 -17 -1 -21 -15 -4
-8 9 -8 15 -2 15 6 0 14 -5 17 -11z m-595 -41 c0 -11 -38 -10 -45 2 -3 6 -1
10 5 10 7 0 9 7 6 17 -6 15 -4 15 14 -2 11 -10 20 -22 20 -27z m597 -20 c-3
-8 -6 -5 -6 6 -1 11 2 17 5 13 3 -3 4 -12 1 -19z m-43 -9 c-3 -5 0 -17 8 -26
11 -14 11 -16 -2 -11 -8 2 -16 17 -18 32 -2 19 0 26 7 21 6 -3 9 -11 5 -16z
m-657 -50 c73 -31 145 -109 100 -109 -23 0 -42 -47 -31 -78 11 -31 49 -52 151
-82 39 -11 89 -34 111 -50 42 -30 88 -87 78 -97 -3 -3 -25 0 -48 8 -51 16 -87
19 -94 8 -3 -5 9 -9 26 -9 17 0 49 -9 70 -20 36 -18 60 -20 232 -21 113 0 186
-4 178 -9 -11 -7 -12 -11 0 -24 21 -26 4 -30 -26 -7 -40 32 -54 27 -54 -18 0
-63 -7 -71 -56 -71 -24 0 -44 5 -44 10 0 6 7 10 15 10 8 0 19 10 26 21 16 30
-2 65 -37 72 -32 6 -74 -7 -74 -23 0 -13 27 -13 35 0 3 6 13 10 21 10 11 0 14
-9 12 -32 -3 -32 -28 -53 -28 -24 0 18 -25 22 -35 5 -4 -5 1 -19 11 -30 17
-18 16 -19 -14 -19 -29 0 -32 3 -32 29 0 16 -3 36 -6 45 -12 31 -24 15 -24
-30 l0 -47 -67 7 c-108 10 -109 11 -105 59 3 23 9 47 14 54 10 13 3 33 -12 33
-5 0 -15 -7 -24 -15 -14 -14 -17 -14 -36 5 -11 11 -25 18 -30 15 -16 -10 -11
-22 12 -28 l21 -6 -24 -20 c-19 -16 -22 -23 -13 -38 6 -9 22 -21 35 -25 16 -5
11 -6 -16 -3 -22 3 -53 5 -70 6 -17 1 -22 3 -12 6 14 4 16 11 11 45 -5 28 -3
42 6 48 19 12 2 30 -28 30 -68 0 -100 -74 -44 -104 33 -19 34 -19 -85 -5 -119
13 -157 30 -149 65 4 14 2 24 -4 24 -5 0 -10 -9 -10 -20 0 -23 -26 -26 -52 -6
-17 12 -17 14 0 28 9 8 36 23 59 33 52 23 48 34 -10 28 -46 -6 -60 6 -48 38 5
15 13 14 69 -9 66 -27 68 -30 46 -86 -3 -9 -1 -16 4 -16 6 0 14 16 18 36 6 35
8 36 43 30 103 -19 162 -26 221 -25 74 1 70 3 -55 19 -107 14 -181 34 -253 68
l-52 24 39 20 c92 45 138 169 91 246 -31 51 -27 53 47 21z m-89 -18 c3 -8 -1
-12 -9 -9 -7 2 -15 10 -17 17 -3 8 1 12 9 9 7 -2 15 -10 17 -17z m30 -71 c-6
-55 -26 -79 -65 -80 -21 0 -23 4 -23 59 l0 60 38 4 c20 2 41 4 46 5 5 1 6 -21
4 -48z m960 4 c-45 -76 0 -204 86 -244 l41 -18 -30 -12 c-44 -17 -133 -41
-188 -50 -26 -5 -56 -11 -66 -15 -15 -4 -252 -7 -303 -3 -30 2 -22 18 29 58
38 31 96 50 166 56 39 3 84 10 99 16 30 11 51 53 46 94 -2 23 -9 30 -30 32
-16 2 -28 7 -28 12 0 16 75 71 125 90 72 27 78 26 53 -16z m66 -7 c-3 -9 -10
-17 -15 -17 -11 0 -12 34 -2 44 11 11 24 -9 17 -27z m9 -41 c12 -4 17 -16 17
-40 0 -19 3 -41 6 -50 5 -12 0 -16 -21 -16 -47 0 -65 17 -65 60 0 54 8 71 28
60 10 -5 25 -11 35 -14z m-863 -29 c-1 -21 -1 -21 -15 -3 -8 10 -12 23 -9 28
9 14 24 -2 24 -25z m650 -41 c0 -8 -4 -18 -10 -21 -5 -3 -10 3 -10 14 0 12 5
21 10 21 6 0 10 -6 10 -14z m-1050 -38 c18 -25 23 -45 25 -103 1 -39 5 -78 10
-86 7 -11 3 -10 -15 2 -20 14 -24 24 -22 53 4 41 -4 47 -17 14 -7 -19 -9 -16
-8 17 0 22 -3 61 -8 88 -9 56 1 60 35 15z m1440 -143 c0 -71 -6 -82 -51 -105
-21 -11 -40 -20 -41 -20 -2 0 -2 20 0 44 3 37 0 46 -17 56 -34 18 -101 -13
-101 -47 0 -20 20 -16 40 10 23 28 43 13 38 -29 -2 -21 -9 -29 -23 -29 -25 -1
-45 -13 -45 -27 0 -6 11 -8 28 -4 27 5 27 5 -3 -9 -16 -8 -38 -14 -49 -15 -15
0 -16 3 -7 14 7 8 11 32 9 53 -2 31 -8 39 -31 47 -39 14 -61 -2 -65 -46 -2
-29 2 -40 24 -57 l27 -21 -40 0 -39 0 -2 48 c-2 26 -5 54 -7 62 -4 12 14 19
78 34 45 10 111 31 146 47 35 16 65 29 67 29 2 0 4 -11 4 -25 0 -14 5 -25 10
-25 6 0 10 -9 10 -21 0 -11 5 -17 10 -14 6 3 10 31 10 61 0 34 4 53 10 49 6
-3 10 -30 10 -60z m-1032 -82 c-2 -21 -7 -38 -13 -38 -5 0 -11 17 -13 38 -3
29 0 37 13 37 13 0 16 -8 13 -37z m777 -35 c6 -30 4 -38 -8 -38 -16 0 -33 63
-21 81 10 16 22 -2 29 -43z m-625 -2 c0 -20 -19 -31 -32 -18 -6 6 -7 15 -4 21
10 16 36 13 36 -3z m481 -40 c15 -13 25 -27 22 -30 -9 -9 -53 -7 -53 2 0 4 -3
17 -6 30 -8 28 1 28 37 -2z"/>
<path d="M3305 2221 c-10 -4 -34 -6 -52 -4 -32 3 -33 3 -33 -35 0 -40 23 -73
51 -71 8 0 28 8 44 18 25 15 30 24 30 56 0 41 -8 48 -40 36z m-15 -50 c0 -15
-16 -22 -34 -15 -25 9 -19 24 9 24 14 0 25 -4 25 -9z"/>
<path d="M1546 1795 c-15 -11 -16 -15 -5 -15 8 0 24 7 35 15 14 11 15 14 4 14
-8 0 -24 -6 -34 -14z"/>
<path d="M1588 1773 c7 -3 16 -2 19 1 4 3 -2 6 -13 5 -11 0 -14 -3 -6 -6z"/>
<path d="M1448 1758 c-16 -5 -28 -13 -28 -17 0 -11 49 -1 56 11 9 15 1 16 -28
6z"/>
<path d="M1450 1720 c-24 -15 -7 -18 20 -3 14 7 18 13 10 13 -8 0 -22 -4 -30
-10z"/>
<path d="M1547 1689 c-3 -12 -2 -31 3 -42 7 -18 9 -14 9 21 1 46 -4 54 -12 21z"/>
<path d="M1606 1671 c-4 -24 -5 -46 -2 -48 7 -7 19 63 14 79 -3 7 -8 -7 -12
-31z"/>
<path d="M1782 1690 c0 -14 2 -19 5 -12 2 6 2 18 0 25 -3 6 -5 1 -5 -13z"/>
<path d="M1821 1694 c0 -11 3 -14 6 -6 3 7 2 16 -1 19 -3 4 -6 -2 -5 -13z"/>
<path d="M1642 1675 c0 -16 2 -22 5 -12 2 9 2 23 0 30 -3 6 -5 -1 -5 -18z"/>
<path d="M1812 1640 c0 -14 2 -19 5 -12 2 6 2 18 0 25 -3 6 -5 1 -5 -13z"/>
<path d="M1830 1609 c0 -5 5 -7 10 -4 6 3 10 8 10 11 0 2 -4 4 -10 4 -5 0 -10
-5 -10 -11z"/>
<path d="M2222 1640 c0 -19 2 -27 5 -17 2 9 2 25 0 35 -3 9 -5 1 -5 -18z"/>
<path d="M2290 1616 c0 -25 5 -46 10 -46 6 0 10 18 10 39 0 22 -4 43 -10 46
-6 4 -10 -12 -10 -39z"/>
<path d="M2090 1625 c0 -14 4 -25 9 -25 5 0 9 11 9 25 0 14 -4 25 -9 25 -5 0
-9 -11 -9 -25z"/>
<path d="M2182 1610 c0 -19 2 -27 5 -17 2 9 2 25 0 35 -3 9 -5 1 -5 -18z"/>
<path d="M2130 1590 c0 -5 5 -10 10 -10 6 0 10 5 10 10 0 6 -4 10 -10 10 -5 0
-10 -4 -10 -10z"/>
<path d="M1975 1585 c32 -26 45 -31 45 -16 0 11 -45 41 -62 41 -7 0 1 -11 17
-25z"/>
<path d="M1911 1573 c19 -25 31 -33 49 -33 10 1 9 4 -5 12 -11 6 -24 17 -28
25 -4 7 -13 13 -19 13 -6 0 -5 -7 3 -17z"/>
<path d="M1880 1552 c0 -4 6 -14 13 -21 10 -11 7 -12 -13 -7 l-25 7 24 -20
c13 -12 28 -21 35 -20 7 0 7 2 -1 6 -7 2 -13 9 -13 15 0 6 7 8 15 4 8 -3 15
-2 15 2 -1 10 -50 45 -50 34z"/>
<path d="M1820 1483 c1 -12 51 -46 57 -39 3 3 -5 14 -18 25 -25 21 -39 26 -39
14z"/>
<path d="M1770 1456 c0 -6 65 -46 74 -46 4 0 -6 11 -22 25 -27 22 -52 32 -52
21z"/>
<path d="M2055 1550 c-3 -4 8 -13 24 -20 16 -6 32 -18 35 -26 3 -8 10 -14 16
-14 7 0 8 6 0 19 -12 23 -67 53 -75 41z"/>
<path d="M2070 1469 c17 -17 33 -29 36 -27 6 6 -46 58 -58 58 -5 0 5 -14 22
-31z"/>
<path d="M2050 1430 c19 -16 36 -27 39 -24 7 7 -46 54 -61 54 -7 0 3 -13 22
-30z"/>
<path d="M2000 1417 c14 -15 29 -27 34 -27 13 0 -14 29 -38 42 -18 10 -17 7 4
-15z"/>
<path d="M1980 1371 c19 -16 37 -27 39 -25 6 6 -48 54 -62 54 -6 0 4 -13 23
-29z"/>
<path d="M1953 1346 c22 -21 41 -35 44 -32 7 7 -27 41 -57 56 -19 10 -16 4 13
-24z"/>
<path d="M2037 1359 c7 -7 15 -10 18 -7 3 3 -2 9 -12 12 -14 6 -15 5 -6 -5z"/>
<path d="M1446 837 c-20 -53 -20 -63 0 -71 21 -8 34 1 34 25 0 11 7 33 15 48
15 31 12 41 -15 41 -11 0 -23 -16 -34 -43z"/>
<path d="M1847 792 c-23 -26 -21 -58 5 -76 30 -21 43 -20 71 7 20 19 22 25 11
46 -23 44 -60 54 -87 23z m51 -38 c-2 -15 -8 -29 -15 -31 -17 -6 -26 33 -13
58 15 28 33 11 28 -27z"/>
<path d="M1126 4597 c-16 -12 -15 -15 12 -49 16 -21 49 -67 72 -103 24 -36 48
-65 52 -65 5 0 17 5 27 12 18 11 17 16 -32 87 -29 42 -55 78 -58 81 -3 3 -11
15 -18 28 -13 25 -29 28 -55 9z"/>
<path d="M2906 4441 c-82 -82 -87 -90 -75 -110 18 -27 20 -27 58 9 17 17 36
28 41 25 13 -8 13 -45 -1 -83 -8 -22 -7 -36 1 -52 16 -30 33 -20 46 26 10 35
15 40 48 45 47 8 77 37 78 76 1 33 -22 70 -74 120 l-34 33 -88 -89z m128 -20
c39 -43 -12 -83 -53 -42 -24 24 -26 32 -9 49 18 18 42 15 62 -7z"/>
<path d="M975 4478 c-90 -49 -98 -142 -20 -218 31 -30 41 -34 90 -34 48 -1 58
3 86 30 36 37 49 98 26 129 -13 17 -17 17 -32 5 -11 -9 -15 -23 -11 -41 3 -19
-1 -36 -15 -53 -28 -35 -68 -34 -108 3 -59 55 -34 149 35 135 22 -4 34 -1 44
11 12 15 12 19 -5 31 -22 17 -62 18 -90 2z"/>
<path d="M3179 4282 c-14 -9 -33 -24 -42 -32 -9 -8 -41 -33 -71 -55 -56 -40
-64 -59 -35 -78 17 -10 44 6 129 79 14 12 38 32 53 46 28 23 28 24 10 40 -18
16 -20 16 -44 0z"/>
<path d="M773 4263 c-25 -10 -12 -33 42 -74 30 -23 55 -45 55 -49 0 -4 -39 -1
-86 7 -85 13 -86 13 -104 -9 -11 -13 -19 -26 -20 -30 0 -4 35 -34 78 -65 42
-32 83 -64 90 -70 19 -18 49 -16 56 4 5 12 -3 25 -26 44 -18 15 -44 37 -58 49
l-25 21 70 -5 c39 -4 79 -8 90 -11 14 -4 26 3 39 21 17 24 17 28 4 38 -24 18
-88 68 -130 104 -39 31 -51 35 -75 25z"/>
<path d="M3180 4124 c-52 -35 -96 -68 -98 -73 -5 -16 61 -109 90 -125 78 -47
188 20 188 114 0 35 -55 141 -75 146 -6 2 -53 -26 -105 -62z m116 -31 c7 -10
13 -34 14 -53 0 -29 -6 -39 -33 -57 -18 -13 -43 -23 -55 -23 -22 0 -72 46 -72
66 0 15 96 77 129 83 2 1 10 -7 17 -16z"/>
<path d="M535 3900 c-19 -38 -35 -74 -35 -79 0 -7 203 -121 216 -121 8 0 84
152 79 160 -15 25 -42 8 -64 -40 -24 -53 -34 -58 -66 -34 -19 14 -19 15 5 59
18 34 22 47 13 56 -18 18 -38 5 -57 -35 -18 -38 -42 -47 -53 -20 -3 9 4 36 15
60 21 43 21 44 2 54 -17 9 -23 3 -55 -60z"/>
<path d="M3335 3854 c-103 -51 -108 -55 -99 -77 9 -26 31 -21 134 32 70 35 95
53 95 67 0 32 -34 26 -130 -22z"/>
<path d="M3389 3743 c-52 -24 -83 -73 -76 -122 8 -66 54 -111 112 -111 14 0
25 4 25 9 0 23 -14 41 -31 41 -26 0 -59 35 -59 63 0 51 80 98 133 78 30 -12
44 -52 30 -84 -6 -14 -7 -31 -1 -46 l8 -24 25 23 c44 41 28 130 -31 175 -25
19 -90 18 -135 -2z"/>
<path d="M430 3689 c-14 -25 -18 -21 50 -52 163 -76 169 -78 180 -57 16 31 12
36 -37 55 -27 10 -74 31 -105 46 -69 35 -74 35 -88 8z"/>
<path d="M382 3544 c-54 -38 -70 -132 -29 -176 46 -50 80 -63 155 -59 38 2 79
51 87 103 8 53 -14 108 -44 108 -24 0 -33 -34 -15 -57 21 -28 17 -70 -8 -87
-63 -44 -160 16 -146 91 1 10 18 25 35 33 22 10 33 22 33 38 0 27 -34 30 -68
6z"/>
<path d="M290 3421 c0 -5 5 -13 10 -16 6 -3 10 -2 10 4 0 5 -4 13 -10 16 -5 3
-10 2 -10 -4z"/>
<path d="M3390 3401 c0 -26 15 -41 46 -47 27 -5 36 -12 43 -38 7 -27 5 -34
-17 -52 -19 -17 -23 -28 -18 -48 l6 -25 108 71 c92 61 107 74 105 96 -1 14 -6
29 -10 33 -12 11 -263 21 -263 10z m190 -57 c0 -10 -33 -33 -47 -34 -7 0 -13
9 -13 20 0 16 7 20 30 20 17 0 30 -3 30 -6z"/>
<path d="M3621 3131 c-23 -23 -29 -45 -33 -111 -3 -37 -6 -45 -23 -45 -31 0
-43 48 -22 88 17 32 15 67 -5 67 -5 0 -20 -12 -34 -27 -22 -24 -25 -35 -21
-76 6 -69 33 -101 87 -105 54 -4 73 20 80 103 4 46 9 61 22 63 11 2 22 -6 30
-23 10 -21 9 -31 -5 -55 -31 -51 6 -85 39 -35 21 32 14 107 -13 144 -26 34
-74 40 -102 12z"/>
<path d="M241 3072 c-5 -10 -11 -49 -13 -87 l-3 -70 118 -18 c92 -15 121 -16
132 -7 8 7 13 16 10 20 -2 4 0 33 5 64 10 65 5 86 -20 86 -18 0 -30 -35 -30
-86 0 -28 -14 -38 -46 -30 -23 6 -24 9 -18 62 7 55 6 56 -17 52 -20 -2 -25
-10 -29 -48 -4 -40 -8 -45 -29 -45 -24 0 -25 2 -22 63 2 50 0 62 -13 62 -8 0
-20 -8 -25 -18z"/>
<path d="M292 2813 c-34 -7 -70 -41 -81 -77 -12 -38 -17 -133 -8 -143 4 -4 62
-7 130 -7 l122 -1 3 67 c3 74 -12 117 -51 142 -26 17 -82 26 -115 19z m101
-81 c10 -9 17 -29 17 -48 0 -37 -20 -48 -75 -40 -16 3 -43 5 -58 5 -29 1 -30
4 -17 78 0 1 12 9 28 17 31 17 78 12 105 -12z"/>
<path d="M3690 2670 c-56 -29 -87 -39 -123 -40 -47 0 -48 -1 -45 -27 3 -26 8
-29 53 -34 28 -3 78 -20 111 -37 75 -39 94 -40 94 -8 0 20 -9 28 -52 44 -29
11 -54 24 -55 29 -2 5 21 19 52 32 49 20 55 26 55 52 0 16 -3 29 -7 29 -5 -1
-42 -19 -83 -40z"/>
<path d="M268 2334 c-39 -21 -58 -64 -58 -131 0 -88 -3 -86 141 -73 68 7 125
13 127 15 2 1 -2 31 -7 66 -16 98 -56 139 -136 138 -22 0 -52 -6 -67 -15z
m109 -46 c35 -16 43 -26 43 -60 0 -32 -24 -42 -105 -42 l-50 -1 -3 36 c-3 30
2 41 24 58 31 24 51 26 91 9z"/>
<path d="M3515 2238 c-38 -33 -46 -121 -15 -160 16 -22 30 -28 58 -28 50 0 57
7 86 73 25 56 48 72 60 41 10 -25 8 -31 -19 -60 -50 -54 -16 -90 39 -39 22 21
26 32 26 83 0 70 -18 92 -73 92 -39 0 -67 -27 -67 -66 0 -12 -8 -32 -18 -45
-24 -29 -52 -20 -52 18 0 33 9 47 33 56 10 4 17 17 17 32 0 20 -5 25 -24 25
-14 0 -37 -10 -51 -22z"/>
<path d="M439 2026 c-20 -14 -52 -34 -72 -45 -107 -60 -122 -78 -94 -113 9
-12 45 -19 135 -28 68 -7 126 -9 129 -6 14 14 -17 56 -41 56 -28 0 -41 15 -48
51 -4 21 1 30 24 43 29 18 32 24 22 50 -8 21 -13 20 -55 -8z m-32 -120 c-4 -9
-15 -12 -33 -8 l-28 5 30 23 c24 20 30 21 32 8 2 -8 1 -21 -1 -28z"/>
<path d="M3494 1944 c-66 -15 -97 -125 -53 -188 30 -44 56 -56 120 -56 57 0
83 11 100 42 36 67 27 144 -21 178 -29 21 -104 33 -146 24z m116 -74 c29 -20
37 -66 16 -93 -32 -42 -133 -29 -155 19 -35 78 60 129 139 74z"/>
<path d="M320 1698 c0 -13 11 -54 24 -93 19 -56 28 -71 46 -73 20 -3 21 0 18
34 -3 42 -10 37 125 80 42 13 57 23 57 36 0 36 -37 34 -153 -8 -52 -19 -57
-18 -68 16 -13 37 -49 42 -49 8z"/>
<path d="M3395 1605 c-63 -22 -95 -86 -73 -145 21 -57 70 -80 83 -40 5 15 0
26 -19 41 -14 11 -26 31 -26 43 0 32 36 66 69 66 29 0 87 -34 104 -61 16 -26
0 -69 -31 -80 -49 -19 -58 -59 -13 -59 22 0 38 10 60 37 52 63 38 154 -28 187
-43 22 -84 25 -126 11z"/>
<path d="M605 1518 c-3 -8 1 -31 10 -51 8 -20 15 -40 15 -46 0 -5 -40 -24 -90
-42 -83 -31 -90 -36 -90 -61 0 -34 13 -35 72 -9 24 11 70 31 103 45 33 14 61
31 63 38 1 7 -9 40 -22 73 -24 58 -51 81 -61 53z"/>
<path d="M3236 1344 c-3 -8 -6 -19 -6 -24 0 -11 50 -39 143 -79 65 -28 80 -32
88 -20 15 23 11 28 -38 51 -27 12 -69 34 -94 49 -65 38 -85 43 -93 23z"/>
<path d="M595 1245 c-81 -43 -97 -62 -72 -84 12 -9 28 -4 78 25 96 54 106 57
129 34 37 -37 26 -56 -60 -106 -45 -26 -83 -50 -85 -54 -2 -4 2 -15 9 -25 12
-17 17 -16 77 17 97 53 107 60 120 91 25 60 -31 148 -93 146 -12 0 -59 -20
-103 -44z"/>
<path d="M3169 1224 c-10 -13 -9 -22 6 -50 16 -30 16 -38 5 -59 -11 -20 -21
-25 -50 -25 -48 0 -73 -26 -45 -46 10 -8 28 -14 39 -14 12 0 60 -11 108 -24
l88 -25 15 22 c22 31 20 38 -32 95 -27 29 -59 70 -72 92 -29 46 -45 55 -62 34z
m87 -141 c18 -24 17 -33 -3 -33 -28 0 -47 16 -40 34 8 21 27 20 43 -1z"/>
<path d="M818 1043 c-38 -10 -11 -53 32 -53 33 0 60 -28 60 -61 0 -51 -78
-101 -130 -84 -26 8 -43 50 -35 87 8 36 -21 51 -41 23 -20 -28 -17 -71 9 -110
39 -61 98 -74 172 -39 62 29 93 114 62 173 -23 45 -86 76 -129 64z"/>
<path d="M2961 933 c-56 -63 -59 -71 -34 -80 11 -5 27 5 49 31 l33 39 35 -29
c19 -16 55 -47 81 -69 46 -38 48 -39 62 -20 15 22 17 20 -103 125 -75 67 -66
66 -123 3z"/>
<path d="M970 736 c-60 -113 -61 -118 -46 -141 20 -30 19 -30 70 -6 23 10 70
31 106 47 86 36 96 46 72 67 -15 14 -23 15 -49 5 -29 -11 -34 -10 -52 13 -23
28 -25 42 -10 71 9 17 7 24 -9 40 -20 20 -20 20 -82 -96z m69 -50 c10 -12 8
-17 -8 -25 -26 -15 -41 -14 -41 2 0 14 19 37 31 37 4 0 12 -6 18 -14z"/>
<path d="M2781 753 c-33 -27 -60 -54 -61 -61 0 -16 30 -28 39 -15 3 5 21 19
39 32 32 22 34 22 53 6 26 -24 25 -29 -16 -66 -19 -18 -35 -38 -35 -46 0 -22
29 -15 63 17 38 36 43 36 58 8 10 -19 7 -26 -29 -57 -37 -34 -46 -61 -18 -61
6 0 32 18 56 40 25 22 48 40 51 40 19 1 14 30 -8 56 -14 16 -48 57 -75 92 -28
34 -51 62 -53 62 -2 0 -31 -21 -64 -47z"/>
<path d="M2554 602 c-44 -28 -69 -85 -54 -122 16 -39 53 -50 113 -34 56 14 77
10 77 -16 0 -21 -32 -35 -68 -31 -13 1 -30 -3 -38 -10 -24 -20 2 -39 55 -39
38 0 52 6 79 31 29 27 33 37 28 63 -9 48 -42 69 -96 62 -25 -3 -55 -8 -67 -12
-36 -10 -42 24 -10 52 23 20 30 21 57 11 24 -9 33 -9 45 4 14 14 14 17 -3 33
-30 27 -82 30 -118 8z"/>
<path d="M1288 550 c-21 -37 -41 -38 -80 -5 -17 14 -36 24 -42 22 -25 -8 -15
-35 24 -62 22 -15 40 -31 40 -34 0 -4 -9 -17 -21 -29 l-20 -22 -44 30 c-49 34
-60 36 -69 15 -5 -15 53 -64 113 -97 26 -14 21 -19 112 105 52 70 59 100 24
105 -13 2 -26 -8 -37 -28z"/>
<path d="M1875 387 c-18 -28 -27 -32 -68 -35 -26 -2 -47 -7 -47 -13 0 -5 11
-26 23 -47 23 -36 24 -37 5 -67 -24 -41 -23 -43 19 -47 30 -2 42 -10 61 -38
13 -19 26 -36 30 -38 4 -1 16 14 26 33 17 31 24 35 57 35 48 0 53 8 30 51 -18
34 -18 34 7 67 14 18 23 35 20 37 -2 3 -24 6 -48 9 -41 3 -46 7 -62 45 -9 22
-21 41 -25 41 -4 -1 -17 -15 -28 -33z"/>
</g>
</svg>
